<svg width="250" height="250" viewBox="0 0 180 180" fill="none" xmlns="http://www.w3.org/2000/svg">
<g clip-path="url(#clip0)">
<path d="M180 97.7957C180 143.758 143.625 147.239 112.875 166.444C70.3666 192.992 88.3492 136.364 35.5612 105.656C26.2476 100.237 19.8956 90.0701 22.7869 79.6587C33.8145 39.9492 61.4691 -11.1336 100.5 2.14705C141 10.4316 174 47.8243 180 97.7957Z" fill="#36E7FF"/>
<path d="M161.25 103.821C161.25 149.783 124.875 153.264 94.125 172.469C51.6166 199.017 69.5989 142.389 16.8112 111.681C7.49762 106.263 1.14561 96.0951 4.0369 85.6837C15.0645 45.9743 42.7191 -5.10853 81.75 8.17213C122.25 16.4567 155.25 53.8494 161.25 103.821Z" fill="#4636FF"/>
<path d="M172.125 97.7957C172.125 143.758 135.75 147.239 105 166.444C62.4916 192.992 80.4742 136.364 27.6862 105.656C18.3726 100.237 12.0206 90.0701 14.9119 79.6587C25.9395 39.9492 53.5941 -11.1336 92.625 2.14705C133.125 10.4316 166.125 47.8243 172.125 97.7957Z" fill="#1875FF"/>
<path d="M33.605 72.0602C34.5545 56.4387 41.1849 44.0409 56.6357 44.9879C72.0865 45.9349 91.263 56.4387 90.3135 72.0603C89.364 87.6818 75.4613 82.8384 60.0107 81.8917C44.5598 80.945 32.6555 87.6818 33.605 72.0602Z" fill="white"/>
<path d="M103.355 72.0602C104.305 56.4387 110.935 44.0409 126.386 44.9879C141.836 45.9349 161.013 56.4387 160.064 72.0603C159.114 87.6818 145.211 82.8384 129.761 81.8917C114.31 80.945 102.406 87.6818 103.355 72.0602Z" fill="white"/>
</g>
<defs>
<clipPath id="clip0">
<rect width="180" height="180" fill="white"/>
</clipPath>
</defs>
</svg>
