<svg width="417" height="178" viewBox="0 0 417 178" fill="none" xmlns="http://www.w3.org/2000/svg">
<rect x="137.603" y="25.2482" width="278.993" height="138.865" rx="21" fill="#F4F4F4"/>
<path d="M206.399 74.126C205.475 74.126 204.647 73.976 203.915 73.676C203.183 73.376 202.595 72.932 202.151 72.344C201.719 71.756 201.491 71.048 201.467 70.22H204.743C204.791 70.688 204.953 71.048 205.229 71.3C205.505 71.54 205.865 71.66 206.309 71.66C206.765 71.66 207.125 71.558 207.389 71.354C207.653 71.138 207.785 70.844 207.785 70.472C207.785 70.16 207.677 69.902 207.461 69.698C207.257 69.494 206.999 69.326 206.687 69.194C206.387 69.062 205.955 68.912 205.391 68.744C204.575 68.492 203.909 68.24 203.393 67.988C202.877 67.736 202.433 67.364 202.061 66.872C201.689 66.38 201.503 65.738 201.503 64.946C201.503 63.77 201.929 62.852 202.781 62.192C203.633 61.52 204.743 61.184 206.111 61.184C207.503 61.184 208.625 61.52 209.477 62.192C210.329 62.852 210.785 63.776 210.845 64.964H207.515C207.491 64.556 207.341 64.238 207.065 64.01C206.789 63.77 206.435 63.65 206.003 63.65C205.631 63.65 205.331 63.752 205.103 63.956C204.875 64.148 204.761 64.43 204.761 64.802C204.761 65.21 204.953 65.528 205.337 65.756C205.721 65.984 206.321 66.23 207.137 66.494C207.953 66.77 208.613 67.034 209.117 67.286C209.633 67.538 210.077 67.904 210.449 68.384C210.821 68.864 211.007 69.482 211.007 70.238C211.007 70.958 210.821 71.612 210.449 72.2C210.089 72.788 209.561 73.256 208.865 73.604C208.169 73.952 207.347 74.126 206.399 74.126ZM214.449 62.912C213.909 62.912 213.465 62.756 213.117 62.444C212.781 62.12 212.613 61.724 212.613 61.256C212.613 60.776 212.781 60.38 213.117 60.068C213.465 59.744 213.909 59.582 214.449 59.582C214.977 59.582 215.409 59.744 215.745 60.068C216.093 60.38 216.267 60.776 216.267 61.256C216.267 61.724 216.093 62.12 215.745 62.444C215.409 62.756 214.977 62.912 214.449 62.912ZM215.979 63.956V74H212.901V63.956H215.979ZM231.025 63.848C232.273 63.848 233.263 64.226 233.995 64.982C234.739 65.738 235.111 66.788 235.111 68.132V74H232.051V68.546C232.051 67.898 231.877 67.4 231.529 67.052C231.193 66.692 230.725 66.512 230.125 66.512C229.525 66.512 229.051 66.692 228.703 67.052C228.367 67.4 228.199 67.898 228.199 68.546V74H225.139V68.546C225.139 67.898 224.965 67.4 224.617 67.052C224.281 66.692 223.813 66.512 223.213 66.512C222.613 66.512 222.139 66.692 221.791 67.052C221.455 67.4 221.287 67.898 221.287 68.546V74H218.209V63.956H221.287V65.216C221.599 64.796 222.007 64.466 222.511 64.226C223.015 63.974 223.585 63.848 224.221 63.848C224.977 63.848 225.649 64.01 226.237 64.334C226.837 64.658 227.305 65.12 227.641 65.72C227.989 65.168 228.463 64.718 229.063 64.37C229.663 64.022 230.317 63.848 231.025 63.848ZM240.342 65.378C240.642 64.91 241.056 64.532 241.584 64.244C242.112 63.956 242.73 63.812 243.438 63.812C244.266 63.812 245.016 64.022 245.688 64.442C246.36 64.862 246.888 65.462 247.272 66.242C247.668 67.022 247.866 67.928 247.866 68.96C247.866 69.992 247.668 70.904 247.272 71.696C246.888 72.476 246.36 73.082 245.688 73.514C245.016 73.934 244.266 74.144 243.438 74.144C242.742 74.144 242.124 74 241.584 73.712C241.056 73.424 240.642 73.052 240.342 72.596V78.788H237.264V63.956H240.342V65.378ZM244.734 68.96C244.734 68.192 244.518 67.592 244.086 67.16C243.666 66.716 243.144 66.494 242.52 66.494C241.908 66.494 241.386 66.716 240.954 67.16C240.534 67.604 240.324 68.21 240.324 68.978C240.324 69.746 240.534 70.352 240.954 70.796C241.386 71.24 241.908 71.462 242.52 71.462C243.132 71.462 243.654 71.24 244.086 70.796C244.518 70.34 244.734 69.728 244.734 68.96ZM252.559 60.68V74H249.481V60.68H252.559ZM264.257 68.816C264.257 69.104 264.239 69.404 264.203 69.716H257.237C257.285 70.34 257.483 70.82 257.831 71.156C258.191 71.48 258.629 71.642 259.145 71.642C259.913 71.642 260.447 71.318 260.747 70.67H264.023C263.855 71.33 263.549 71.924 263.105 72.452C262.673 72.98 262.127 73.394 261.467 73.694C260.807 73.994 260.069 74.144 259.253 74.144C258.269 74.144 257.393 73.934 256.625 73.514C255.857 73.094 255.257 72.494 254.825 71.714C254.393 70.934 254.177 70.022 254.177 68.978C254.177 67.934 254.387 67.022 254.807 66.242C255.239 65.462 255.839 64.862 256.607 64.442C257.375 64.022 258.257 63.812 259.253 63.812C260.225 63.812 261.089 64.016 261.845 64.424C262.601 64.832 263.189 65.414 263.609 66.17C264.041 66.926 264.257 67.808 264.257 68.816ZM261.107 68.006C261.107 67.478 260.927 67.058 260.567 66.746C260.207 66.434 259.757 66.278 259.217 66.278C258.701 66.278 258.263 66.428 257.903 66.728C257.555 67.028 257.339 67.454 257.255 68.006H261.107Z" fill="#4636FF"/>
<path d="M269.193 71.156L267.195 76.322H265.233L266.277 71.156H269.193ZM353.499 61.364L349.125 69.824V74H346.047V69.824L341.673 61.364H345.165L347.613 66.656L350.043 61.364H353.499ZM364.207 68.816C364.207 69.104 364.189 69.404 364.153 69.716H357.187C357.235 70.34 357.433 70.82 357.781 71.156C358.141 71.48 358.579 71.642 359.095 71.642C359.863 71.642 360.397 71.318 360.697 70.67H363.973C363.805 71.33 363.499 71.924 363.055 72.452C362.623 72.98 362.077 73.394 361.417 73.694C360.757 73.994 360.019 74.144 359.203 74.144C358.219 74.144 357.343 73.934 356.575 73.514C355.807 73.094 355.207 72.494 354.775 71.714C354.343 70.934 354.127 70.022 354.127 68.978C354.127 67.934 354.337 67.022 354.757 66.242C355.189 65.462 355.789 64.862 356.557 64.442C357.325 64.022 358.207 63.812 359.203 63.812C360.175 63.812 361.039 64.016 361.795 64.424C362.551 64.832 363.139 65.414 363.559 66.17C363.991 66.926 364.207 67.808 364.207 68.816ZM361.057 68.006C361.057 67.478 360.877 67.058 360.517 66.746C360.157 66.434 359.707 66.278 359.167 66.278C358.651 66.278 358.213 66.428 357.853 66.728C357.505 67.028 357.289 67.454 357.205 68.006H361.057ZM371.428 71.39V74H369.862C368.746 74 367.876 73.73 367.252 73.19C366.628 72.638 366.316 71.744 366.316 70.508V66.512H365.092V63.956H366.316V61.508H369.394V63.956H371.41V66.512H369.394V70.544C369.394 70.844 369.466 71.06 369.61 71.192C369.754 71.324 369.994 71.39 370.33 71.39H371.428ZM294.518 88.364V90.83H291.17V101H288.092V90.83H284.744V88.364H294.518ZM305.531 95.816C305.531 96.104 305.513 96.404 305.477 96.716H298.511C298.559 97.34 298.757 97.82 299.105 98.156C299.465 98.48 299.903 98.642 300.419 98.642C301.187 98.642 301.721 98.318 302.021 97.67H305.297C305.129 98.33 304.823 98.924 304.379 99.452C303.947 99.98 303.401 100.394 302.741 100.694C302.081 100.994 301.343 101.144 300.527 101.144C299.543 101.144 298.667 100.934 297.899 100.514C297.131 100.094 296.531 99.494 296.099 98.714C295.667 97.934 295.451 97.022 295.451 95.978C295.451 94.934 295.661 94.022 296.081 93.242C296.513 92.462 297.113 91.862 297.881 91.442C298.649 91.022 299.531 90.812 300.527 90.812C301.499 90.812 302.363 91.016 303.119 91.424C303.875 91.832 304.463 92.414 304.883 93.17C305.315 93.926 305.531 94.808 305.531 95.816ZM302.381 95.006C302.381 94.478 302.201 94.058 301.841 93.746C301.481 93.434 301.031 93.278 300.491 93.278C299.975 93.278 299.537 93.428 299.177 93.728C298.829 94.028 298.613 94.454 298.529 95.006H302.381ZM319.971 90.848C321.219 90.848 322.209 91.226 322.941 91.982C323.685 92.738 324.057 93.788 324.057 95.132V101H320.997V95.546C320.997 94.898 320.823 94.4 320.475 94.052C320.139 93.692 319.671 93.512 319.071 93.512C318.471 93.512 317.997 93.692 317.649 94.052C317.313 94.4 317.145 94.898 317.145 95.546V101H314.085V95.546C314.085 94.898 313.911 94.4 313.563 94.052C313.227 93.692 312.759 93.512 312.159 93.512C311.559 93.512 311.085 93.692 310.737 94.052C310.401 94.4 310.233 94.898 310.233 95.546V101H307.155V90.956H310.233V92.216C310.545 91.796 310.953 91.466 311.457 91.226C311.961 90.974 312.531 90.848 313.167 90.848C313.923 90.848 314.595 91.01 315.183 91.334C315.783 91.658 316.251 92.12 316.587 92.72C316.935 92.168 317.409 91.718 318.009 91.37C318.609 91.022 319.263 90.848 319.971 90.848ZM329.287 92.378C329.587 91.91 330.001 91.532 330.529 91.244C331.057 90.956 331.675 90.812 332.383 90.812C333.211 90.812 333.961 91.022 334.633 91.442C335.305 91.862 335.833 92.462 336.217 93.242C336.613 94.022 336.811 94.928 336.811 95.96C336.811 96.992 336.613 97.904 336.217 98.696C335.833 99.476 335.305 100.082 334.633 100.514C333.961 100.934 333.211 101.144 332.383 101.144C331.687 101.144 331.069 101 330.529 100.712C330.001 100.424 329.587 100.052 329.287 99.596V105.788H326.209V90.956H329.287V92.378ZM333.679 95.96C333.679 95.192 333.463 94.592 333.031 94.16C332.611 93.716 332.089 93.494 331.465 93.494C330.853 93.494 330.331 93.716 329.899 94.16C329.479 94.604 329.269 95.21 329.269 95.978C329.269 96.746 329.479 97.352 329.899 97.796C330.331 98.24 330.853 98.462 331.465 98.462C332.077 98.462 332.599 98.24 333.031 97.796C333.463 97.34 333.679 96.728 333.679 95.96ZM341.504 87.68V101H338.426V87.68H341.504ZM343.123 95.96C343.123 94.928 343.315 94.022 343.699 93.242C344.095 92.462 344.629 91.862 345.301 91.442C345.973 91.022 346.723 90.812 347.551 90.812C348.259 90.812 348.877 90.956 349.405 91.244C349.945 91.532 350.359 91.91 350.647 92.378V90.956H353.725V101H350.647V99.578C350.347 100.046 349.927 100.424 349.387 100.712C348.859 101 348.241 101.144 347.533 101.144C346.717 101.144 345.973 100.934 345.301 100.514C344.629 100.082 344.095 99.476 343.699 98.696C343.315 97.904 343.123 96.992 343.123 95.96ZM350.647 95.978C350.647 95.21 350.431 94.604 349.999 94.16C349.579 93.716 349.063 93.494 348.451 93.494C347.839 93.494 347.317 93.716 346.885 94.16C346.465 94.592 346.255 95.192 346.255 95.96C346.255 96.728 346.465 97.34 346.885 97.796C347.317 98.24 347.839 98.462 348.451 98.462C349.063 98.462 349.579 98.24 349.999 97.796C350.431 97.352 350.647 96.746 350.647 95.978ZM361.55 98.39V101H359.984C358.868 101 357.998 100.73 357.374 100.19C356.75 99.638 356.438 98.744 356.438 97.508V93.512H355.214V90.956H356.438V88.508H359.516V90.956H361.532V93.512H359.516V97.544C359.516 97.844 359.588 98.06 359.732 98.192C359.876 98.324 360.116 98.39 360.452 98.39H361.55ZM372.732 95.816C372.732 96.104 372.714 96.404 372.678 96.716H365.712C365.76 97.34 365.958 97.82 366.306 98.156C366.666 98.48 367.104 98.642 367.62 98.642C368.388 98.642 368.922 98.318 369.222 97.67H372.498C372.33 98.33 372.024 98.924 371.58 99.452C371.148 99.98 370.602 100.394 369.942 100.694C369.282 100.994 368.544 101.144 367.728 101.144C366.744 101.144 365.868 100.934 365.1 100.514C364.332 100.094 363.732 99.494 363.3 98.714C362.868 97.934 362.652 97.022 362.652 95.978C362.652 94.934 362.862 94.022 363.282 93.242C363.714 92.462 364.314 91.862 365.082 91.442C365.85 91.022 366.732 90.812 367.728 90.812C368.7 90.812 369.564 91.016 370.32 91.424C371.076 91.832 371.664 92.414 372.084 93.17C372.516 93.926 372.732 94.808 372.732 95.816ZM369.582 95.006C369.582 94.478 369.402 94.058 369.042 93.746C368.682 93.434 368.232 93.278 367.692 93.278C367.176 93.278 366.738 93.428 366.378 93.728C366.03 94.028 365.814 94.454 365.73 95.006H369.582ZM259.748 115.364V128H256.67V120.422L253.844 128H251.36L248.516 120.404V128H245.438V115.364H249.074L252.62 124.112L256.13 115.364H259.748ZM261.349 122.96C261.349 121.928 261.541 121.022 261.925 120.242C262.321 119.462 262.855 118.862 263.527 118.442C264.199 118.022 264.949 117.812 265.777 117.812C266.485 117.812 267.103 117.956 267.631 118.244C268.171 118.532 268.585 118.91 268.873 119.378V117.956H271.951V128H268.873V126.578C268.573 127.046 268.153 127.424 267.613 127.712C267.085 128 266.467 128.144 265.759 128.144C264.943 128.144 264.199 127.934 263.527 127.514C262.855 127.082 262.321 126.476 261.925 125.696C261.541 124.904 261.349 123.992 261.349 122.96ZM268.873 122.978C268.873 122.21 268.657 121.604 268.225 121.16C267.805 120.716 267.289 120.494 266.677 120.494C266.065 120.494 265.543 120.716 265.111 121.16C264.691 121.592 264.481 122.192 264.481 122.96C264.481 123.728 264.691 124.34 265.111 124.796C265.543 125.24 266.065 125.462 266.677 125.462C267.289 125.462 267.805 125.24 268.225 124.796C268.657 124.352 268.873 123.746 268.873 122.978ZM280.298 117.848C281.474 117.848 282.41 118.232 283.106 119C283.814 119.756 284.168 120.8 284.168 122.132V128H281.108V122.546C281.108 121.874 280.934 121.352 280.586 120.98C280.238 120.608 279.77 120.422 279.182 120.422C278.594 120.422 278.126 120.608 277.778 120.98C277.43 121.352 277.256 121.874 277.256 122.546V128H274.178V117.956H277.256V119.288C277.568 118.844 277.988 118.496 278.516 118.244C279.044 117.98 279.638 117.848 280.298 117.848ZM285.695 122.96C285.695 121.928 285.887 121.022 286.271 120.242C286.667 119.462 287.201 118.862 287.873 118.442C288.545 118.022 289.295 117.812 290.123 117.812C290.831 117.812 291.449 117.956 291.977 118.244C292.517 118.532 292.931 118.91 293.219 119.378V117.956H296.297V128H293.219V126.578C292.919 127.046 292.499 127.424 291.959 127.712C291.431 128 290.813 128.144 290.105 128.144C289.289 128.144 288.545 127.934 287.873 127.514C287.201 127.082 286.667 126.476 286.271 125.696C285.887 124.904 285.695 123.992 285.695 122.96ZM293.219 122.978C293.219 122.21 293.003 121.604 292.571 121.16C292.151 120.716 291.635 120.494 291.023 120.494C290.411 120.494 289.889 120.716 289.457 121.16C289.037 121.592 288.827 122.192 288.827 122.96C288.827 123.728 289.037 124.34 289.457 124.796C289.889 125.24 290.411 125.462 291.023 125.462C291.635 125.462 292.151 125.24 292.571 124.796C293.003 124.352 293.219 123.746 293.219 122.978ZM302.34 117.812C303.048 117.812 303.666 117.956 304.194 118.244C304.734 118.532 305.148 118.91 305.436 119.378V117.956H308.514V127.982C308.514 128.906 308.328 129.74 307.956 130.484C307.596 131.24 307.038 131.84 306.282 132.284C305.538 132.728 304.608 132.95 303.492 132.95C302.004 132.95 300.798 132.596 299.874 131.888C298.95 131.192 298.422 130.244 298.29 129.044H301.332C301.428 129.428 301.656 129.728 302.016 129.944C302.376 130.172 302.82 130.286 303.348 130.286C303.984 130.286 304.488 130.1 304.86 129.728C305.244 129.368 305.436 128.786 305.436 127.982V126.56C305.136 127.028 304.722 127.412 304.194 127.712C303.666 128 303.048 128.144 302.34 128.144C301.512 128.144 300.762 127.934 300.09 127.514C299.418 127.082 298.884 126.476 298.488 125.696C298.104 124.904 297.912 123.992 297.912 122.96C297.912 121.928 298.104 121.022 298.488 120.242C298.884 119.462 299.418 118.862 300.09 118.442C300.762 118.022 301.512 117.812 302.34 117.812ZM305.436 122.978C305.436 122.21 305.22 121.604 304.788 121.16C304.368 120.716 303.852 120.494 303.24 120.494C302.628 120.494 302.106 120.716 301.674 121.16C301.254 121.592 301.044 122.192 301.044 122.96C301.044 123.728 301.254 124.34 301.674 124.796C302.106 125.24 302.628 125.462 303.24 125.462C303.852 125.462 304.368 125.24 304.788 124.796C305.22 124.352 305.436 123.746 305.436 122.978ZM320.209 122.816C320.209 123.104 320.191 123.404 320.155 123.716H313.189C313.237 124.34 313.435 124.82 313.783 125.156C314.143 125.48 314.581 125.642 315.097 125.642C315.865 125.642 316.399 125.318 316.699 124.67H319.975C319.807 125.33 319.501 125.924 319.057 126.452C318.625 126.98 318.079 127.394 317.419 127.694C316.759 127.994 316.021 128.144 315.205 128.144C314.221 128.144 313.345 127.934 312.577 127.514C311.809 127.094 311.209 126.494 310.777 125.714C310.345 124.934 310.129 124.022 310.129 122.978C310.129 121.934 310.339 121.022 310.759 120.242C311.191 119.462 311.791 118.862 312.559 118.442C313.327 118.022 314.209 117.812 315.205 117.812C316.177 117.812 317.041 118.016 317.797 118.424C318.553 118.832 319.141 119.414 319.561 120.17C319.993 120.926 320.209 121.808 320.209 122.816ZM317.059 122.006C317.059 121.478 316.879 121.058 316.519 120.746C316.159 120.434 315.709 120.278 315.169 120.278C314.653 120.278 314.215 120.428 313.855 120.728C313.507 121.028 313.291 121.454 313.207 122.006H317.059ZM324.91 119.63C325.27 119.078 325.72 118.646 326.26 118.334C326.8 118.01 327.4 117.848 328.06 117.848V121.106H327.214C326.446 121.106 325.87 121.274 325.486 121.61C325.102 121.934 324.91 122.51 324.91 123.338V128H321.832V117.956H324.91V119.63Z" fill="#232323"/>
<path d="M279.436 74.126C278.512 74.126 277.684 73.976 276.952 73.676C276.22 73.376 275.632 72.932 275.188 72.344C274.756 71.756 274.528 71.048 274.504 70.22H277.78C277.828 70.688 277.99 71.048 278.266 71.3C278.542 71.54 278.902 71.66 279.346 71.66C279.802 71.66 280.162 71.558 280.426 71.354C280.69 71.138 280.822 70.844 280.822 70.472C280.822 70.16 280.714 69.902 280.498 69.698C280.294 69.494 280.036 69.326 279.724 69.194C279.424 69.062 278.992 68.912 278.428 68.744C277.612 68.492 276.946 68.24 276.43 67.988C275.914 67.736 275.47 67.364 275.098 66.872C274.726 66.38 274.54 65.738 274.54 64.946C274.54 63.77 274.966 62.852 275.818 62.192C276.67 61.52 277.78 61.184 279.148 61.184C280.54 61.184 281.662 61.52 282.514 62.192C283.366 62.852 283.822 63.776 283.882 64.964H280.552C280.528 64.556 280.378 64.238 280.102 64.01C279.826 63.77 279.472 63.65 279.04 63.65C278.668 63.65 278.368 63.752 278.14 63.956C277.912 64.148 277.798 64.43 277.798 64.802C277.798 65.21 277.99 65.528 278.374 65.756C278.758 65.984 279.358 66.23 280.174 66.494C280.99 66.77 281.65 67.034 282.154 67.286C282.67 67.538 283.114 67.904 283.486 68.384C283.858 68.864 284.044 69.482 284.044 70.238C284.044 70.958 283.858 71.612 283.486 72.2C283.126 72.788 282.598 73.256 281.902 73.604C281.206 73.952 280.384 74.126 279.436 74.126ZM295.406 68.816C295.406 69.104 295.388 69.404 295.352 69.716H288.386C288.434 70.34 288.632 70.82 288.98 71.156C289.34 71.48 289.778 71.642 290.294 71.642C291.062 71.642 291.596 71.318 291.896 70.67H295.172C295.004 71.33 294.698 71.924 294.254 72.452C293.822 72.98 293.276 73.394 292.616 73.694C291.956 73.994 291.218 74.144 290.402 74.144C289.418 74.144 288.542 73.934 287.774 73.514C287.006 73.094 286.406 72.494 285.974 71.714C285.542 70.934 285.326 70.022 285.326 68.978C285.326 67.934 285.536 67.022 285.956 66.242C286.388 65.462 286.988 64.862 287.756 64.442C288.524 64.022 289.406 63.812 290.402 63.812C291.374 63.812 292.238 64.016 292.994 64.424C293.75 64.832 294.338 65.414 294.758 66.17C295.19 66.926 295.406 67.808 295.406 68.816ZM292.256 68.006C292.256 67.478 292.076 67.058 291.716 66.746C291.356 66.434 290.906 66.278 290.366 66.278C289.85 66.278 289.412 66.428 289.052 66.728C288.704 67.028 288.488 67.454 288.404 68.006H292.256ZM296.418 68.978C296.418 67.934 296.628 67.022 297.048 66.242C297.48 65.462 298.074 64.862 298.83 64.442C299.598 64.022 300.474 63.812 301.458 63.812C302.718 63.812 303.768 64.142 304.608 64.802C305.46 65.462 306.018 66.392 306.282 67.592H303.006C302.73 66.824 302.196 66.44 301.404 66.44C300.84 66.44 300.39 66.662 300.054 67.106C299.718 67.538 299.55 68.162 299.55 68.978C299.55 69.794 299.718 70.424 300.054 70.868C300.39 71.3 300.84 71.516 301.404 71.516C302.196 71.516 302.73 71.132 303.006 70.364H306.282C306.018 71.54 305.46 72.464 304.608 73.136C303.756 73.808 302.706 74.144 301.458 74.144C300.474 74.144 299.598 73.934 298.83 73.514C298.074 73.094 297.48 72.494 297.048 71.714C296.628 70.934 296.418 70.022 296.418 68.978ZM317.846 63.956V74H314.768V72.632C314.456 73.076 314.03 73.436 313.49 73.712C312.962 73.976 312.374 74.108 311.726 74.108C310.958 74.108 310.28 73.94 309.692 73.604C309.104 73.256 308.648 72.758 308.324 72.11C308 71.462 307.838 70.7 307.838 69.824V63.956H310.898V69.41C310.898 70.082 311.072 70.604 311.42 70.976C311.768 71.348 312.236 71.534 312.824 71.534C313.424 71.534 313.898 71.348 314.246 70.976C314.594 70.604 314.768 70.082 314.768 69.41V63.956H317.846ZM323.135 65.63C323.495 65.078 323.945 64.646 324.485 64.334C325.025 64.01 325.625 63.848 326.285 63.848V67.106H325.439C324.671 67.106 324.095 67.274 323.711 67.61C323.327 67.934 323.135 68.51 323.135 69.338V74H320.057V63.956H323.135V65.63ZM337.224 68.816C337.224 69.104 337.206 69.404 337.17 69.716H330.204C330.252 70.34 330.45 70.82 330.798 71.156C331.158 71.48 331.596 71.642 332.112 71.642C332.88 71.642 333.414 71.318 333.714 70.67H336.99C336.822 71.33 336.516 71.924 336.072 72.452C335.64 72.98 335.094 73.394 334.434 73.694C333.774 73.994 333.036 74.144 332.22 74.144C331.236 74.144 330.36 73.934 329.592 73.514C328.824 73.094 328.224 72.494 327.792 71.714C327.36 70.934 327.144 70.022 327.144 68.978C327.144 67.934 327.354 67.022 327.774 66.242C328.206 65.462 328.806 64.862 329.574 64.442C330.342 64.022 331.224 63.812 332.22 63.812C333.192 63.812 334.056 64.016 334.812 64.424C335.568 64.832 336.156 65.414 336.576 66.17C337.008 66.926 337.224 67.808 337.224 68.816ZM334.074 68.006C334.074 67.478 333.894 67.058 333.534 66.746C333.174 66.434 332.724 66.278 332.184 66.278C331.668 66.278 331.23 66.428 330.87 66.728C330.522 67.028 330.306 67.454 330.222 68.006H334.074Z" fill="#1875FF"/>
<path d="M210.244 92.432C210.244 93.164 210.076 93.836 209.74 94.448C209.404 95.048 208.888 95.534 208.192 95.906C207.496 96.278 206.632 96.464 205.6 96.464H203.692V101H200.614V88.364H205.6C206.608 88.364 207.46 88.538 208.156 88.886C208.852 89.234 209.374 89.714 209.722 90.326C210.07 90.938 210.244 91.64 210.244 92.432ZM205.366 94.016C205.954 94.016 206.392 93.878 206.68 93.602C206.968 93.326 207.112 92.936 207.112 92.432C207.112 91.928 206.968 91.538 206.68 91.262C206.392 90.986 205.954 90.848 205.366 90.848H203.692V94.016H205.366ZM216.418 101.144C215.434 101.144 214.546 100.934 213.754 100.514C212.974 100.094 212.356 99.494 211.9 98.714C211.456 97.934 211.234 97.022 211.234 95.978C211.234 94.946 211.462 94.04 211.918 93.26C212.374 92.468 212.998 91.862 213.79 91.442C214.582 91.022 215.47 90.812 216.454 90.812C217.438 90.812 218.326 91.022 219.118 91.442C219.91 91.862 220.534 92.468 220.99 93.26C221.446 94.04 221.674 94.946 221.674 95.978C221.674 97.01 221.44 97.922 220.972 98.714C220.516 99.494 219.886 100.094 219.082 100.514C218.29 100.934 217.402 101.144 216.418 101.144ZM216.418 98.48C217.006 98.48 217.504 98.264 217.912 97.832C218.332 97.4 218.542 96.782 218.542 95.978C218.542 95.174 218.338 94.556 217.93 94.124C217.534 93.692 217.042 93.476 216.454 93.476C215.854 93.476 215.356 93.692 214.96 94.124C214.564 94.544 214.366 95.162 214.366 95.978C214.366 96.782 214.558 97.4 214.942 97.832C215.338 98.264 215.83 98.48 216.418 98.48ZM237.725 90.956L235.007 101H231.605L230.021 94.484L228.383 101H224.999L222.263 90.956H225.341L226.763 98.138L228.455 90.956H231.713L233.423 98.102L234.827 90.956H237.725ZM248.367 95.816C248.367 96.104 248.349 96.404 248.313 96.716H241.347C241.395 97.34 241.593 97.82 241.941 98.156C242.301 98.48 242.739 98.642 243.255 98.642C244.023 98.642 244.557 98.318 244.857 97.67H248.133C247.965 98.33 247.659 98.924 247.215 99.452C246.783 99.98 246.237 100.394 245.577 100.694C244.917 100.994 244.179 101.144 243.363 101.144C242.379 101.144 241.503 100.934 240.735 100.514C239.967 100.094 239.367 99.494 238.935 98.714C238.503 97.934 238.287 97.022 238.287 95.978C238.287 94.934 238.497 94.022 238.917 93.242C239.349 92.462 239.949 91.862 240.717 91.442C241.485 91.022 242.367 90.812 243.363 90.812C244.335 90.812 245.199 91.016 245.955 91.424C246.711 91.832 247.299 92.414 247.719 93.17C248.151 93.926 248.367 94.808 248.367 95.816ZM245.217 95.006C245.217 94.478 245.037 94.058 244.677 93.746C244.317 93.434 243.867 93.278 243.327 93.278C242.811 93.278 242.373 93.428 242.013 93.728C241.665 94.028 241.449 94.454 241.365 95.006H245.217ZM253.069 92.63C253.429 92.078 253.879 91.646 254.419 91.334C254.959 91.01 255.559 90.848 256.219 90.848V94.106H255.373C254.605 94.106 254.029 94.274 253.645 94.61C253.261 94.934 253.069 95.51 253.069 96.338V101H249.991V90.956H253.069V92.63ZM262.73 93.512H261.074V101H257.996V93.512H256.88V90.956H257.996V90.668C257.996 89.432 258.35 88.496 259.058 87.86C259.766 87.212 260.804 86.888 262.172 86.888C262.4 86.888 262.568 86.894 262.676 86.906V89.516C262.088 89.48 261.674 89.564 261.434 89.768C261.194 89.972 261.074 90.338 261.074 90.866V90.956H262.73V93.512ZM274.094 90.956V101H271.016V99.632C270.704 100.076 270.278 100.436 269.738 100.712C269.21 100.976 268.622 101.108 267.974 101.108C267.206 101.108 266.528 100.94 265.94 100.604C265.352 100.256 264.896 99.758 264.572 99.11C264.248 98.462 264.086 97.7 264.086 96.824V90.956H267.146V96.41C267.146 97.082 267.32 97.604 267.668 97.976C268.016 98.348 268.484 98.534 269.072 98.534C269.672 98.534 270.146 98.348 270.494 97.976C270.842 97.604 271.016 97.082 271.016 96.41V90.956H274.094ZM279.383 87.68V101H276.305V87.68H279.383Z" fill="#3662FF"/>
<path d="M179.386 97.0559C179.386 142.67 143.135 146.125 112.49 165.185C71.6146 190.607 86.863 139.178 40.728 108.158C28.8183 100.15 20.1943 86.7603 24.4829 73.0646C36.4859 34.7331 63.206 -10.3898 100.157 2.13081C140.519 10.3527 173.406 47.4625 179.386 97.0559Z" fill="#36E7FF"/>
<path d="M160.7 103.035C160.7 148.65 124.449 152.104 93.8039 171.164C52.9286 196.587 68.1769 145.158 22.0419 114.138C10.1323 106.13 1.50824 92.7398 5.79686 79.0441C17.7998 40.7126 44.5199 -4.41028 81.4711 8.11036C121.833 16.3322 154.72 53.4421 160.7 103.035Z" fill="#4636FF"/>
<path d="M171.538 97.0559C171.538 142.67 135.287 146.125 104.642 165.185C63.7664 190.607 79.0148 139.178 32.8798 108.158C20.9702 100.15 12.3461 86.7603 16.6348 73.0646C28.6377 34.7331 55.3578 -10.3898 92.309 2.13081C132.671 10.3527 165.558 47.4625 171.538 97.0559Z" fill="#1875FF"/>
<path d="M33.4903 71.5151C34.4366 56.0117 41.0444 43.7078 56.4425 44.6476C71.8406 45.5875 90.9516 56.0118 90.0053 71.5152C89.059 87.0186 75.2041 82.2122 59.806 81.2723C44.4079 80.3324 32.544 87.0185 33.4903 71.5151Z" fill="white"/>
<path d="M103.002 71.5151C103.949 56.0117 110.556 43.7078 125.955 44.6476C141.353 45.5875 160.464 56.0118 159.517 71.5152C158.571 87.0186 144.716 82.2122 129.318 81.2723C113.92 80.3324 102.056 87.0185 103.002 71.5151Z" fill="white"/>
</svg>

