<svg width="513" height="219" viewBox="0 0 513 219" fill="none" xmlns="http://www.w3.org/2000/svg">
<rect x="169.34" y="31.0638" width="343.255" height="170.851" rx="21" fill="#F4F4F4"/>
<path d="M243.373 89.168C242.141 89.168 241.037 88.968 240.061 88.568C239.085 88.168 238.301 87.576 237.709 86.792C237.133 86.008 236.829 85.064 236.797 83.96H241.165C241.229 84.584 241.445 85.064 241.813 85.4C242.181 85.72 242.661 85.88 243.253 85.88C243.861 85.88 244.341 85.744 244.693 85.472C245.045 85.184 245.221 84.792 245.221 84.296C245.221 83.88 245.077 83.536 244.789 83.264C244.517 82.992 244.173 82.768 243.757 82.592C243.357 82.416 242.781 82.216 242.029 81.992C240.941 81.656 240.053 81.32 239.365 80.984C238.677 80.648 238.085 80.152 237.589 79.496C237.093 78.84 236.845 77.984 236.845 76.928C236.845 75.36 237.413 74.136 238.549 73.256C239.685 72.36 241.165 71.912 242.989 71.912C244.845 71.912 246.341 72.36 247.477 73.256C248.613 74.136 249.221 75.368 249.301 76.952H244.861C244.829 76.408 244.629 75.984 244.261 75.68C243.893 75.36 243.421 75.2 242.845 75.2C242.349 75.2 241.949 75.336 241.645 75.608C241.341 75.864 241.189 76.24 241.189 76.736C241.189 77.28 241.445 77.704 241.957 78.008C242.469 78.312 243.269 78.64 244.357 78.992C245.445 79.36 246.325 79.712 246.997 80.048C247.685 80.384 248.277 80.872 248.773 81.512C249.269 82.152 249.517 82.976 249.517 83.984C249.517 84.944 249.269 85.816 248.773 86.6C248.293 87.384 247.589 88.008 246.661 88.472C245.733 88.936 244.637 89.168 243.373 89.168ZM254.107 74.216C253.387 74.216 252.795 74.008 252.331 73.592C251.883 73.16 251.659 72.632 251.659 72.008C251.659 71.368 251.883 70.84 252.331 70.424C252.795 69.992 253.387 69.776 254.107 69.776C254.811 69.776 255.387 69.992 255.835 70.424C256.299 70.84 256.531 71.368 256.531 72.008C256.531 72.632 256.299 73.16 255.835 73.592C255.387 74.008 254.811 74.216 254.107 74.216ZM256.147 75.608V89H252.043V75.608H256.147ZM276.209 75.464C277.873 75.464 279.193 75.968 280.169 76.976C281.161 77.984 281.657 79.384 281.657 81.176V89H277.577V81.728C277.577 80.864 277.345 80.2 276.881 79.736C276.433 79.256 275.809 79.016 275.009 79.016C274.209 79.016 273.577 79.256 273.113 79.736C272.665 80.2 272.441 80.864 272.441 81.728V89H268.361V81.728C268.361 80.864 268.129 80.2 267.665 79.736C267.217 79.256 266.593 79.016 265.793 79.016C264.993 79.016 264.361 79.256 263.897 79.736C263.449 80.2 263.225 80.864 263.225 81.728V89H259.121V75.608H263.225V77.288C263.641 76.728 264.185 76.288 264.857 75.968C265.529 75.632 266.289 75.464 267.137 75.464C268.145 75.464 269.041 75.68 269.825 76.112C270.625 76.544 271.249 77.16 271.697 77.96C272.161 77.224 272.793 76.624 273.593 76.16C274.393 75.696 275.265 75.464 276.209 75.464ZM288.631 77.504C289.031 76.88 289.583 76.376 290.287 75.992C290.991 75.608 291.815 75.416 292.759 75.416C293.863 75.416 294.863 75.696 295.759 76.256C296.655 76.816 297.359 77.616 297.871 78.656C298.399 79.696 298.663 80.904 298.663 82.28C298.663 83.656 298.399 84.872 297.871 85.928C297.359 86.968 296.655 87.776 295.759 88.352C294.863 88.912 293.863 89.192 292.759 89.192C291.831 89.192 291.007 89 290.287 88.616C289.583 88.232 289.031 87.736 288.631 87.128V95.384H284.527V75.608H288.631V77.504ZM294.487 82.28C294.487 81.256 294.199 80.456 293.623 79.88C293.063 79.288 292.367 78.992 291.535 78.992C290.719 78.992 290.023 79.288 289.447 79.88C288.887 80.472 288.607 81.28 288.607 82.304C288.607 83.328 288.887 84.136 289.447 84.728C290.023 85.32 290.719 85.616 291.535 85.616C292.351 85.616 293.047 85.32 293.623 84.728C294.199 84.12 294.487 83.304 294.487 82.28ZM304.92 71.24V89H300.816V71.24H304.92ZM320.518 82.088C320.518 82.472 320.494 82.872 320.446 83.288H311.158C311.222 84.12 311.486 84.76 311.95 85.208C312.43 85.64 313.014 85.856 313.702 85.856C314.726 85.856 315.438 85.424 315.838 84.56H320.206C319.982 85.44 319.574 86.232 318.982 86.936C318.406 87.64 317.678 88.192 316.798 88.592C315.918 88.992 314.934 89.192 313.846 89.192C312.534 89.192 311.366 88.912 310.342 88.352C309.318 87.792 308.518 86.992 307.942 85.952C307.366 84.912 307.078 83.696 307.078 82.304C307.078 80.912 307.358 79.696 307.918 78.656C308.494 77.616 309.294 76.816 310.318 76.256C311.342 75.696 312.518 75.416 313.846 75.416C315.142 75.416 316.294 75.688 317.302 76.232C318.31 76.776 319.094 77.552 319.654 78.56C320.23 79.568 320.518 80.744 320.518 82.088ZM316.318 81.008C316.318 80.304 316.078 79.744 315.598 79.328C315.118 78.912 314.518 78.704 313.798 78.704C313.11 78.704 312.526 78.904 312.046 79.304C311.582 79.704 311.294 80.272 311.182 81.008H316.318Z" fill="#4636FF"/>
<path d="M327.099 85.208L324.435 92.096H321.819L323.211 85.208H327.099ZM439.506 72.152L433.674 83.432V89H429.57V83.432L423.738 72.152H428.394L431.658 79.208L434.898 72.152H439.506ZM453.784 82.088C453.784 82.472 453.76 82.872 453.712 83.288H444.424C444.488 84.12 444.752 84.76 445.216 85.208C445.696 85.64 446.28 85.856 446.968 85.856C447.992 85.856 448.704 85.424 449.104 84.56H453.472C453.248 85.44 452.84 86.232 452.248 86.936C451.672 87.64 450.944 88.192 450.064 88.592C449.184 88.992 448.2 89.192 447.112 89.192C445.8 89.192 444.632 88.912 443.608 88.352C442.584 87.792 441.784 86.992 441.208 85.952C440.632 84.912 440.344 83.696 440.344 82.304C440.344 80.912 440.624 79.696 441.184 78.656C441.76 77.616 442.56 76.816 443.584 76.256C444.608 75.696 445.784 75.416 447.112 75.416C448.408 75.416 449.56 75.688 450.568 76.232C451.576 76.776 452.36 77.552 452.92 78.56C453.496 79.568 453.784 80.744 453.784 82.088ZM449.584 81.008C449.584 80.304 449.344 79.744 448.864 79.328C448.384 78.912 447.784 78.704 447.064 78.704C446.376 78.704 445.792 78.904 445.312 79.304C444.848 79.704 444.56 80.272 444.448 81.008H449.584ZM463.413 85.52V89H461.325C459.837 89 458.677 88.64 457.845 87.92C457.013 87.184 456.597 85.992 456.597 84.344V79.016H454.965V75.608H456.597V72.344H460.701V75.608H463.389V79.016H460.701V84.392C460.701 84.792 460.797 85.08 460.989 85.256C461.181 85.432 461.501 85.52 461.949 85.52H463.413ZM360.866 108.152V111.44H356.402V125H352.298V111.44H347.834V108.152H360.866ZM375.549 118.088C375.549 118.472 375.526 118.872 375.478 119.288H366.19C366.254 120.12 366.518 120.76 366.982 121.208C367.462 121.64 368.046 121.856 368.734 121.856C369.758 121.856 370.47 121.424 370.87 120.56H375.238C375.014 121.44 374.606 122.232 374.014 122.936C373.438 123.64 372.71 124.192 371.83 124.592C370.95 124.992 369.966 125.192 368.878 125.192C367.566 125.192 366.398 124.912 365.374 124.352C364.35 123.792 363.55 122.992 362.974 121.952C362.398 120.912 362.11 119.696 362.11 118.304C362.11 116.912 362.39 115.696 362.95 114.656C363.526 113.616 364.326 112.816 365.35 112.256C366.374 111.696 367.55 111.416 368.878 111.416C370.174 111.416 371.326 111.688 372.334 112.232C373.342 112.776 374.126 113.552 374.686 114.56C375.262 115.568 375.549 116.744 375.549 118.088ZM371.35 117.008C371.35 116.304 371.11 115.744 370.63 115.328C370.15 114.912 369.55 114.704 368.83 114.704C368.142 114.704 367.558 114.904 367.078 115.304C366.614 115.704 366.326 116.272 366.214 117.008H371.35ZM394.803 111.464C396.467 111.464 397.787 111.968 398.763 112.976C399.755 113.984 400.251 115.384 400.251 117.176V125H396.171V117.728C396.171 116.864 395.939 116.2 395.475 115.736C395.027 115.256 394.403 115.016 393.603 115.016C392.803 115.016 392.171 115.256 391.707 115.736C391.259 116.2 391.035 116.864 391.035 117.728V125H386.955V117.728C386.955 116.864 386.723 116.2 386.259 115.736C385.811 115.256 385.187 115.016 384.387 115.016C383.587 115.016 382.955 115.256 382.491 115.736C382.043 116.2 381.819 116.864 381.819 117.728V125H377.715V111.608H381.819V113.288C382.235 112.728 382.779 112.288 383.451 111.968C384.123 111.632 384.883 111.464 385.731 111.464C386.739 111.464 387.635 111.68 388.419 112.112C389.219 112.544 389.843 113.16 390.291 113.96C390.755 113.224 391.387 112.624 392.187 112.16C392.987 111.696 393.859 111.464 394.803 111.464ZM407.225 113.504C407.625 112.88 408.177 112.376 408.881 111.992C409.585 111.608 410.409 111.416 411.353 111.416C412.457 111.416 413.457 111.696 414.353 112.256C415.249 112.816 415.953 113.616 416.465 114.656C416.993 115.696 417.257 116.904 417.257 118.28C417.257 119.656 416.993 120.872 416.465 121.928C415.953 122.968 415.249 123.776 414.353 124.352C413.457 124.912 412.457 125.192 411.353 125.192C410.425 125.192 409.601 125 408.881 124.616C408.177 124.232 407.625 123.736 407.225 123.128V131.384H403.121V111.608H407.225V113.504ZM413.081 118.28C413.081 117.256 412.793 116.456 412.217 115.88C411.657 115.288 410.961 114.992 410.129 114.992C409.313 114.992 408.617 115.288 408.041 115.88C407.481 116.472 407.201 117.28 407.201 118.304C407.201 119.328 407.481 120.136 408.041 120.728C408.617 121.32 409.313 121.616 410.129 121.616C410.945 121.616 411.641 121.32 412.217 120.728C412.793 120.12 413.081 119.304 413.081 118.28ZM423.514 107.24V125H419.41V107.24H423.514ZM425.672 118.28C425.672 116.904 425.928 115.696 426.44 114.656C426.968 113.616 427.68 112.816 428.576 112.256C429.472 111.696 430.472 111.416 431.576 111.416C432.52 111.416 433.344 111.608 434.048 111.992C434.768 112.376 435.32 112.88 435.704 113.504V111.608H439.808V125H435.704V123.104C435.304 123.728 434.744 124.232 434.024 124.616C433.32 125 432.496 125.192 431.552 125.192C430.464 125.192 429.472 124.912 428.576 124.352C427.68 123.776 426.968 122.968 426.44 121.928C425.928 120.872 425.672 119.656 425.672 118.28ZM435.704 118.304C435.704 117.28 435.416 116.472 434.84 115.88C434.28 115.288 433.592 114.992 432.776 114.992C431.96 114.992 431.264 115.288 430.688 115.88C430.128 116.456 429.848 117.256 429.848 118.28C429.848 119.304 430.128 120.12 430.688 120.728C431.264 121.32 431.96 121.616 432.776 121.616C433.592 121.616 434.28 121.32 434.84 120.728C435.416 120.136 435.704 119.328 435.704 118.304ZM450.241 121.52V125H448.153C446.665 125 445.505 124.64 444.673 123.92C443.841 123.184 443.425 121.992 443.425 120.344V115.016H441.793V111.608H443.425V108.344H447.529V111.608H450.217V115.016H447.529V120.392C447.529 120.792 447.625 121.08 447.817 121.256C448.009 121.432 448.329 121.52 448.777 121.52H450.241ZM465.151 118.088C465.151 118.472 465.127 118.872 465.079 119.288H455.791C455.855 120.12 456.119 120.76 456.583 121.208C457.063 121.64 457.647 121.856 458.335 121.856C459.359 121.856 460.071 121.424 460.471 120.56H464.839C464.615 121.44 464.207 122.232 463.615 122.936C463.039 123.64 462.311 124.192 461.431 124.592C460.551 124.992 459.567 125.192 458.479 125.192C457.167 125.192 455.999 124.912 454.975 124.352C453.951 123.792 453.151 122.992 452.575 121.952C451.999 120.912 451.711 119.696 451.711 118.304C451.711 116.912 451.991 115.696 452.551 114.656C453.127 113.616 453.927 112.816 454.951 112.256C455.975 111.696 457.151 111.416 458.479 111.416C459.775 111.416 460.927 111.688 461.935 112.232C462.943 112.776 463.727 113.552 464.287 114.56C464.863 115.568 465.151 116.744 465.151 118.088ZM460.951 117.008C460.951 116.304 460.711 115.744 460.231 115.328C459.751 114.912 459.151 114.704 458.431 114.704C457.743 114.704 457.159 114.904 456.679 115.304C456.215 115.704 455.927 116.272 455.815 117.008H460.951ZM314.506 144.152V161H310.402V150.896L306.634 161H303.322L299.53 150.872V161H295.426V144.152H300.273L305.002 155.816L309.682 144.152H314.506ZM316.641 154.28C316.641 152.904 316.897 151.696 317.409 150.656C317.937 149.616 318.649 148.816 319.545 148.256C320.441 147.696 321.441 147.416 322.545 147.416C323.489 147.416 324.313 147.608 325.017 147.992C325.737 148.376 326.289 148.88 326.673 149.504V147.608H330.777V161H326.673V159.104C326.273 159.728 325.713 160.232 324.993 160.616C324.289 161 323.465 161.192 322.521 161.192C321.433 161.192 320.441 160.912 319.545 160.352C318.649 159.776 317.937 158.968 317.409 157.928C316.897 156.872 316.641 155.656 316.641 154.28ZM326.673 154.304C326.673 153.28 326.385 152.472 325.809 151.88C325.249 151.288 324.561 150.992 323.745 150.992C322.929 150.992 322.233 151.288 321.657 151.88C321.097 152.456 320.817 153.256 320.817 154.28C320.817 155.304 321.097 156.12 321.657 156.728C322.233 157.32 322.929 157.616 323.745 157.616C324.561 157.616 325.249 157.32 325.809 156.728C326.385 156.136 326.673 155.328 326.673 154.304ZM341.906 147.464C343.474 147.464 344.722 147.976 345.65 149C346.594 150.008 347.066 151.4 347.066 153.176V161H342.986V153.728C342.986 152.832 342.754 152.136 342.29 151.64C341.826 151.144 341.202 150.896 340.418 150.896C339.634 150.896 339.01 151.144 338.546 151.64C338.082 152.136 337.85 152.832 337.85 153.728V161H333.746V147.608H337.85V149.384C338.266 148.792 338.826 148.328 339.53 147.992C340.234 147.64 341.026 147.464 341.906 147.464ZM349.102 154.28C349.102 152.904 349.358 151.696 349.87 150.656C350.398 149.616 351.11 148.816 352.006 148.256C352.902 147.696 353.902 147.416 355.006 147.416C355.95 147.416 356.774 147.608 357.478 147.992C358.198 148.376 358.75 148.88 359.134 149.504V147.608H363.238V161H359.134V159.104C358.734 159.728 358.174 160.232 357.454 160.616C356.75 161 355.926 161.192 354.982 161.192C353.894 161.192 352.902 160.912 352.006 160.352C351.11 159.776 350.398 158.968 349.87 157.928C349.358 156.872 349.102 155.656 349.102 154.28ZM359.134 154.304C359.134 153.28 358.846 152.472 358.27 151.88C357.71 151.288 357.022 150.992 356.206 150.992C355.39 150.992 354.694 151.288 354.118 151.88C353.558 152.456 353.278 153.256 353.278 154.28C353.278 155.304 353.558 156.12 354.118 156.728C354.694 157.32 355.39 157.616 356.206 157.616C357.022 157.616 357.71 157.32 358.27 156.728C358.846 156.136 359.134 155.328 359.134 154.304ZM371.295 147.416C372.239 147.416 373.063 147.608 373.767 147.992C374.487 148.376 375.039 148.88 375.423 149.504V147.608H379.527V160.976C379.527 162.208 379.279 163.32 378.783 164.312C378.303 165.32 377.559 166.12 376.551 166.712C375.559 167.304 374.319 167.6 372.831 167.6C370.847 167.6 369.239 167.128 368.007 166.184C366.775 165.256 366.071 163.992 365.895 162.392H369.951C370.079 162.904 370.383 163.304 370.863 163.592C371.343 163.896 371.935 164.048 372.639 164.048C373.487 164.048 374.159 163.8 374.655 163.304C375.167 162.824 375.423 162.048 375.423 160.976V159.08C375.023 159.704 374.471 160.216 373.767 160.616C373.063 161 372.239 161.192 371.295 161.192C370.191 161.192 369.191 160.912 368.295 160.352C367.399 159.776 366.687 158.968 366.159 157.928C365.647 156.872 365.391 155.656 365.391 154.28C365.391 152.904 365.647 151.696 366.159 150.656C366.687 149.616 367.399 148.816 368.295 148.256C369.191 147.696 370.191 147.416 371.295 147.416ZM375.423 154.304C375.423 153.28 375.135 152.472 374.559 151.88C373.999 151.288 373.311 150.992 372.495 150.992C371.679 150.992 370.983 151.288 370.407 151.88C369.847 152.456 369.567 153.256 369.567 154.28C369.567 155.304 369.847 156.12 370.407 156.728C370.983 157.32 371.679 157.616 372.495 157.616C373.311 157.616 373.999 157.32 374.559 156.728C375.135 156.136 375.423 155.328 375.423 154.304ZM395.12 154.088C395.12 154.472 395.096 154.872 395.048 155.288H385.76C385.824 156.12 386.088 156.76 386.552 157.208C387.032 157.64 387.616 157.856 388.304 157.856C389.328 157.856 390.04 157.424 390.44 156.56H394.808C394.584 157.44 394.176 158.232 393.584 158.936C393.008 159.64 392.28 160.192 391.4 160.592C390.52 160.992 389.536 161.192 388.448 161.192C387.136 161.192 385.968 160.912 384.944 160.352C383.92 159.792 383.12 158.992 382.544 157.952C381.968 156.912 381.68 155.696 381.68 154.304C381.68 152.912 381.96 151.696 382.52 150.656C383.096 149.616 383.896 148.816 384.92 148.256C385.944 147.696 387.12 147.416 388.448 147.416C389.744 147.416 390.896 147.688 391.904 148.232C392.912 148.776 393.696 149.552 394.256 150.56C394.832 151.568 395.12 152.744 395.12 154.088ZM390.92 153.008C390.92 152.304 390.68 151.744 390.2 151.328C389.72 150.912 389.12 150.704 388.4 150.704C387.712 150.704 387.128 150.904 386.648 151.304C386.184 151.704 385.896 152.272 385.784 153.008H390.92ZM401.389 149.84C401.869 149.104 402.469 148.528 403.189 148.112C403.909 147.68 404.709 147.464 405.589 147.464V151.808H404.461C403.437 151.808 402.669 152.032 402.157 152.48C401.645 152.912 401.389 153.68 401.389 154.784V161H397.285V147.608H401.389V149.84Z" fill="#232323"/>
<path d="M340.756 89.168C339.524 89.168 338.42 88.968 337.444 88.568C336.468 88.168 335.684 87.576 335.092 86.792C334.516 86.008 334.212 85.064 334.18 83.96H338.548C338.612 84.584 338.828 85.064 339.196 85.4C339.564 85.72 340.044 85.88 340.636 85.88C341.244 85.88 341.724 85.744 342.076 85.472C342.428 85.184 342.604 84.792 342.604 84.296C342.604 83.88 342.46 83.536 342.172 83.264C341.9 82.992 341.556 82.768 341.14 82.592C340.74 82.416 340.164 82.216 339.412 81.992C338.324 81.656 337.436 81.32 336.748 80.984C336.06 80.648 335.468 80.152 334.972 79.496C334.476 78.84 334.228 77.984 334.228 76.928C334.228 75.36 334.796 74.136 335.932 73.256C337.068 72.36 338.548 71.912 340.372 71.912C342.228 71.912 343.724 72.36 344.86 73.256C345.996 74.136 346.604 75.368 346.684 76.952H342.244C342.212 76.408 342.012 75.984 341.644 75.68C341.276 75.36 340.804 75.2 340.228 75.2C339.732 75.2 339.332 75.336 339.028 75.608C338.724 75.864 338.572 76.24 338.572 76.736C338.572 77.28 338.828 77.704 339.34 78.008C339.852 78.312 340.652 78.64 341.74 78.992C342.828 79.36 343.708 79.712 344.38 80.048C345.068 80.384 345.66 80.872 346.156 81.512C346.652 82.152 346.9 82.976 346.9 83.984C346.9 84.944 346.652 85.816 346.156 86.6C345.676 87.384 344.972 88.008 344.044 88.472C343.116 88.936 342.02 89.168 340.756 89.168ZM362.049 82.088C362.049 82.472 362.026 82.872 361.978 83.288H352.69C352.754 84.12 353.018 84.76 353.482 85.208C353.962 85.64 354.546 85.856 355.234 85.856C356.258 85.856 356.97 85.424 357.37 84.56H361.738C361.514 85.44 361.106 86.232 360.514 86.936C359.938 87.64 359.21 88.192 358.33 88.592C357.45 88.992 356.466 89.192 355.378 89.192C354.066 89.192 352.898 88.912 351.874 88.352C350.85 87.792 350.05 86.992 349.474 85.952C348.898 84.912 348.61 83.696 348.61 82.304C348.61 80.912 348.89 79.696 349.45 78.656C350.026 77.616 350.826 76.816 351.85 76.256C352.874 75.696 354.05 75.416 355.378 75.416C356.674 75.416 357.826 75.688 358.834 76.232C359.842 76.776 360.626 77.552 361.186 78.56C361.762 79.568 362.049 80.744 362.049 82.088ZM357.85 81.008C357.85 80.304 357.61 79.744 357.13 79.328C356.65 78.912 356.05 78.704 355.33 78.704C354.642 78.704 354.058 78.904 353.578 79.304C353.114 79.704 352.826 80.272 352.714 81.008H357.85ZM363.399 82.304C363.399 80.912 363.679 79.696 364.239 78.656C364.815 77.616 365.607 76.816 366.615 76.256C367.639 75.696 368.807 75.416 370.119 75.416C371.799 75.416 373.199 75.856 374.319 76.736C375.455 77.616 376.199 78.856 376.551 80.456H372.183C371.815 79.432 371.103 78.92 370.047 78.92C369.295 78.92 368.695 79.216 368.247 79.808C367.799 80.384 367.575 81.216 367.575 82.304C367.575 83.392 367.799 84.232 368.247 84.824C368.695 85.4 369.295 85.688 370.047 85.688C371.103 85.688 371.815 85.176 372.183 84.152H376.551C376.199 85.72 375.455 86.952 374.319 87.848C373.183 88.744 371.783 89.192 370.119 89.192C368.807 89.192 367.639 88.912 366.615 88.352C365.607 87.792 364.815 86.992 364.239 85.952C363.679 84.912 363.399 83.696 363.399 82.304ZM391.97 75.608V89H387.866V87.176C387.45 87.768 386.882 88.248 386.162 88.616C385.458 88.968 384.674 89.144 383.81 89.144C382.786 89.144 381.882 88.92 381.098 88.472C380.314 88.008 379.706 87.344 379.274 86.48C378.842 85.616 378.626 84.6 378.626 83.432V75.608H382.706V82.88C382.706 83.776 382.938 84.472 383.402 84.968C383.866 85.464 384.49 85.712 385.274 85.712C386.074 85.712 386.706 85.464 387.17 84.968C387.634 84.472 387.866 83.776 387.866 82.88V75.608H391.97ZM399.022 77.84C399.502 77.104 400.102 76.528 400.822 76.112C401.542 75.68 402.342 75.464 403.222 75.464V79.808H402.094C401.07 79.808 400.302 80.032 399.79 80.48C399.278 80.912 399.022 81.68 399.022 82.784V89H394.918V75.608H399.022V77.84ZM417.807 82.088C417.807 82.472 417.783 82.872 417.735 83.288H408.447C408.511 84.12 408.775 84.76 409.239 85.208C409.719 85.64 410.303 85.856 410.991 85.856C412.015 85.856 412.727 85.424 413.127 84.56H417.495C417.271 85.44 416.863 86.232 416.271 86.936C415.695 87.64 414.967 88.192 414.087 88.592C413.207 88.992 412.223 89.192 411.135 89.192C409.823 89.192 408.655 88.912 407.631 88.352C406.607 87.792 405.807 86.992 405.231 85.952C404.655 84.912 404.367 83.696 404.367 82.304C404.367 80.912 404.647 79.696 405.207 78.656C405.783 77.616 406.583 76.816 407.607 76.256C408.631 75.696 409.807 75.416 411.135 75.416C412.431 75.416 413.583 75.688 414.591 76.232C415.599 76.776 416.383 77.552 416.943 78.56C417.519 79.568 417.807 80.744 417.807 82.088ZM413.607 81.008C413.607 80.304 413.367 79.744 412.887 79.328C412.407 78.912 411.807 78.704 411.087 78.704C410.399 78.704 409.815 78.904 409.335 79.304C408.871 79.704 408.583 80.272 408.471 81.008H413.607Z" fill="#1875FF"/>
<path d="M248.5 113.576C248.5 114.552 248.276 115.448 247.828 116.264C247.38 117.064 246.692 117.712 245.764 118.208C244.836 118.704 243.684 118.952 242.308 118.952H239.764V125H235.66V108.152H242.308C243.652 108.152 244.788 108.384 245.716 108.848C246.644 109.312 247.34 109.952 247.804 110.768C248.268 111.584 248.5 112.52 248.5 113.576ZM241.996 115.688C242.78 115.688 243.364 115.504 243.748 115.136C244.132 114.768 244.324 114.248 244.324 113.576C244.324 112.904 244.132 112.384 243.748 112.016C243.364 111.648 242.78 111.464 241.996 111.464H239.764V115.688H241.996ZM256.732 125.192C255.42 125.192 254.236 124.912 253.18 124.352C252.14 123.792 251.316 122.992 250.708 121.952C250.116 120.912 249.82 119.696 249.82 118.304C249.82 116.928 250.124 115.72 250.732 114.68C251.34 113.624 252.172 112.816 253.228 112.256C254.284 111.696 255.468 111.416 256.78 111.416C258.092 111.416 259.276 111.696 260.332 112.256C261.388 112.816 262.22 113.624 262.828 114.68C263.436 115.72 263.74 116.928 263.74 118.304C263.74 119.68 263.428 120.896 262.804 121.952C262.196 122.992 261.356 123.792 260.284 124.352C259.228 124.912 258.044 125.192 256.732 125.192ZM256.732 121.64C257.516 121.64 258.18 121.352 258.724 120.776C259.284 120.2 259.564 119.376 259.564 118.304C259.564 117.232 259.292 116.408 258.748 115.832C258.22 115.256 257.564 114.968 256.78 114.968C255.98 114.968 255.316 115.256 254.788 115.832C254.26 116.392 253.996 117.216 253.996 118.304C253.996 119.376 254.252 120.2 254.764 120.776C255.292 121.352 255.948 121.64 256.732 121.64ZM285.142 111.608L281.518 125H276.982L274.87 116.312L272.686 125H268.174L264.526 111.608H268.63L270.526 121.184L272.782 111.608H277.126L279.406 121.136L281.278 111.608H285.142ZM299.331 118.088C299.331 118.472 299.307 118.872 299.259 119.288H289.971C290.035 120.12 290.299 120.76 290.763 121.208C291.243 121.64 291.827 121.856 292.515 121.856C293.539 121.856 294.251 121.424 294.651 120.56H299.019C298.795 121.44 298.387 122.232 297.795 122.936C297.219 123.64 296.491 124.192 295.611 124.592C294.731 124.992 293.747 125.192 292.659 125.192C291.347 125.192 290.179 124.912 289.155 124.352C288.131 123.792 287.331 122.992 286.755 121.952C286.179 120.912 285.891 119.696 285.891 118.304C285.891 116.912 286.171 115.696 286.731 114.656C287.307 113.616 288.107 112.816 289.131 112.256C290.155 111.696 291.331 111.416 292.659 111.416C293.955 111.416 295.107 111.688 296.115 112.232C297.123 112.776 297.907 113.552 298.467 114.56C299.043 115.568 299.331 116.744 299.331 118.088ZM295.131 117.008C295.131 116.304 294.891 115.744 294.411 115.328C293.931 114.912 293.331 114.704 292.611 114.704C291.923 114.704 291.339 114.904 290.859 115.304C290.395 115.704 290.107 116.272 289.995 117.008H295.131ZM305.6 113.84C306.08 113.104 306.68 112.528 307.4 112.112C308.12 111.68 308.92 111.464 309.8 111.464V115.808H308.672C307.648 115.808 306.88 116.032 306.368 116.48C305.856 116.912 305.6 117.68 305.6 118.784V125H301.496V111.608H305.6V113.84ZM318.481 115.016H316.273V125H312.169V115.016H310.681V111.608H312.169V111.224C312.169 109.576 312.641 108.328 313.585 107.48C314.529 106.616 315.913 106.184 317.737 106.184C318.041 106.184 318.265 106.192 318.409 106.208V109.688C317.625 109.64 317.073 109.752 316.753 110.024C316.433 110.296 316.273 110.784 316.273 111.488V111.608H318.481V115.016ZM333.634 111.608V125H329.53V123.176C329.114 123.768 328.546 124.248 327.826 124.616C327.122 124.968 326.338 125.144 325.474 125.144C324.45 125.144 323.546 124.92 322.762 124.472C321.978 124.008 321.37 123.344 320.938 122.48C320.506 121.616 320.29 120.6 320.29 119.432V111.608H324.37V118.88C324.37 119.776 324.602 120.472 325.066 120.968C325.53 121.464 326.154 121.712 326.938 121.712C327.738 121.712 328.37 121.464 328.834 120.968C329.298 120.472 329.53 119.776 329.53 118.88V111.608H333.634ZM340.686 107.24V125H336.582V107.24H340.686Z" fill="#3662FF"/>
<path d="M220.748 119.411C220.748 175.533 176.147 179.783 138.443 203.233C86.7773 235.366 107.991 167.705 45.3221 129.998C33.0249 122.599 24.5568 109.138 28.5264 95.3466C42.3979 47.1528 76.0415 -13.3813 123.27 2.62161C172.928 12.7373 213.391 58.3949 220.748 119.411Z" fill="#36E7FF"/>
<path d="M197.758 126.768C197.758 182.889 153.157 187.14 115.453 210.59C63.7871 242.723 85.001 175.062 22.3319 137.355C10.0347 129.956 1.56664 116.495 5.53622 102.703C19.4077 54.5096 53.0514 -6.02442 100.279 9.97848C149.938 20.0941 190.401 65.7518 197.758 126.768Z" fill="#4636FF"/>
<path d="M211.092 119.411C211.092 175.533 166.491 179.783 128.787 203.233C77.1214 235.366 98.3353 167.705 35.6662 129.998C23.369 122.599 14.9009 109.138 18.8705 95.3466C32.742 47.1528 66.3857 -13.3813 113.614 2.62161C163.272 12.7373 203.735 58.3949 211.092 119.411Z" fill="#1875FF"/>
<path d="M41.2469 87.9877C42.4112 68.9133 50.541 53.7753 69.4858 54.9316C88.4307 56.088 111.944 68.9134 110.779 87.9878C109.615 107.062 92.5689 101.149 73.624 99.9923C54.6792 98.836 40.0827 107.062 41.2469 87.9877Z" fill="white"/>
<path d="M126.77 87.9877C127.934 68.9133 136.064 53.7753 155.009 54.9316C173.954 56.088 197.467 68.9134 196.303 87.9878C195.138 107.062 178.092 101.149 159.147 99.9923C140.202 98.836 125.606 107.062 126.77 87.9877Z" fill="white"/>
</svg>


