<svg width="356" height="361" viewBox="0 0 356 361" fill="none" xmlns="http://www.w3.org/2000/svg">
<path d="M355.298 196.678C355.298 289.113 282.144 296.114 220.302 334.737C134.813 388.128 170.978 274.243 64.8156 212.486C46.0849 201.588 33.3104 181.141 39.1251 160.202C61.3028 80.3423 116.919 -22.3909 195.415 4.31795C276.865 20.9791 343.231 96.18 355.298 196.678Z" fill="#36E7FF"/>
<path d="M317.59 208.796C317.59 301.23 244.436 308.231 182.594 346.854C97.105 400.245 133.269 286.36 27.1075 224.603C8.37667 213.705 -4.39793 193.258 1.41677 172.319C23.5945 92.4594 79.211 -10.2738 157.706 16.4351C239.156 33.0963 305.523 108.297 317.59 208.796Z" fill="#4636FF"/>
<path d="M339.461 196.678C339.461 289.113 266.306 296.114 204.465 334.737C118.976 388.128 155.141 274.243 48.9782 212.486C30.2475 201.588 17.4729 181.141 23.2876 160.202C45.4654 80.3423 101.082 -22.3909 179.577 4.31795C261.027 20.9791 327.394 96.18 339.461 196.678Z" fill="#1875FF"/>
<path d="M60.8815 144.921C62.791 113.504 76.1255 88.5711 107.199 90.4756C138.272 92.3802 176.838 113.504 174.929 144.921C173.019 176.338 145.059 166.597 113.986 164.693C82.9128 162.789 58.9719 176.338 60.8815 144.921Z" fill="white"/>
<path d="M201.157 144.921C203.067 113.504 216.401 88.5711 247.474 90.4756C278.546 92.3802 317.113 113.504 315.203 144.921C313.294 176.338 285.334 166.597 254.262 164.693C223.188 162.789 199.248 176.338 201.157 144.921Z" fill="white"/>
</svg>
