<svg width="473" height="219" viewBox="0 0 473 219" fill="none" xmlns="http://www.w3.org/2000/svg">
<rect x="93" y="28" width="380" height="171" rx="21" fill="#F4F4F4"/>
<path d="M239.532 76.189C238.146 76.189 236.904 75.964 235.806 75.514C234.708 75.064 233.826 74.398 233.16 73.516C232.512 72.634 232.17 71.572 232.134 70.33H237.048C237.12 71.032 237.363 71.572 237.777 71.95C238.191 72.31 238.731 72.49 239.397 72.49C240.081 72.49 240.621 72.337 241.017 72.031C241.413 71.707 241.611 71.266 241.611 70.708C241.611 70.24 241.449 69.853 241.125 69.547C240.819 69.241 240.432 68.989 239.964 68.791C239.514 68.593 238.866 68.368 238.02 68.116C236.796 67.738 235.797 67.36 235.023 66.982C234.249 66.604 233.583 66.046 233.025 65.308C232.467 64.57 232.188 63.607 232.188 62.419C232.188 60.655 232.827 59.278 234.105 58.288C235.383 57.28 237.048 56.776 239.1 56.776C241.188 56.776 242.871 57.28 244.149 58.288C245.427 59.278 246.111 60.664 246.201 62.446H241.206C241.17 61.834 240.945 61.357 240.531 61.015C240.117 60.655 239.586 60.475 238.938 60.475C238.38 60.475 237.93 60.628 237.588 60.934C237.246 61.222 237.075 61.645 237.075 62.203C237.075 62.815 237.363 63.292 237.939 63.634C238.515 63.976 239.415 64.345 240.639 64.741C241.863 65.155 242.853 65.551 243.609 65.929C244.383 66.307 245.049 66.856 245.607 67.576C246.165 68.296 246.444 69.223 246.444 70.357C246.444 71.437 246.165 72.418 245.607 73.3C245.067 74.182 244.275 74.884 243.231 75.406C242.187 75.928 240.954 76.189 239.532 76.189ZM251.607 59.368C250.797 59.368 250.131 59.134 249.609 58.666C249.105 58.18 248.853 57.586 248.853 56.884C248.853 56.164 249.105 55.57 249.609 55.102C250.131 54.616 250.797 54.373 251.607 54.373C252.399 54.373 253.047 54.616 253.551 55.102C254.073 55.57 254.334 56.164 254.334 56.884C254.334 57.586 254.073 58.18 253.551 58.666C253.047 59.134 252.399 59.368 251.607 59.368ZM253.902 60.934V76H249.285V60.934H253.902ZM276.472 60.772C278.344 60.772 279.829 61.339 280.927 62.473C282.043 63.607 282.601 65.182 282.601 67.198V76H278.011V67.819C278.011 66.847 277.75 66.1 277.228 65.578C276.724 65.038 276.022 64.768 275.122 64.768C274.222 64.768 273.511 65.038 272.989 65.578C272.485 66.1 272.233 66.847 272.233 67.819V76H267.643V67.819C267.643 66.847 267.382 66.1 266.86 65.578C266.356 65.038 265.654 64.768 264.754 64.768C263.854 64.768 263.143 65.038 262.621 65.578C262.117 66.1 261.865 66.847 261.865 67.819V76H257.248V60.934H261.865V62.824C262.333 62.194 262.945 61.699 263.701 61.339C264.457 60.961 265.312 60.772 266.266 60.772C267.4 60.772 268.408 61.015 269.29 61.501C270.19 61.987 270.892 62.68 271.396 63.58C271.918 62.752 272.629 62.077 273.529 61.555C274.429 61.033 275.41 60.772 276.472 60.772ZM290.447 63.067C290.897 62.365 291.518 61.798 292.31 61.366C293.102 60.934 294.029 60.718 295.091 60.718C296.333 60.718 297.458 61.033 298.466 61.663C299.474 62.293 300.266 63.193 300.842 64.363C301.436 65.533 301.733 66.892 301.733 68.44C301.733 69.988 301.436 71.356 300.842 72.544C300.266 73.714 299.474 74.623 298.466 75.271C297.458 75.901 296.333 76.216 295.091 76.216C294.047 76.216 293.12 76 292.31 75.568C291.518 75.136 290.897 74.578 290.447 73.894V83.182H285.83V60.934H290.447V63.067ZM297.035 68.44C297.035 67.288 296.711 66.388 296.063 65.74C295.433 65.074 294.65 64.741 293.714 64.741C292.796 64.741 292.013 65.074 291.365 65.74C290.735 66.406 290.42 67.315 290.42 68.467C290.42 69.619 290.735 70.528 291.365 71.194C292.013 71.86 292.796 72.193 293.714 72.193C294.632 72.193 295.415 71.86 296.063 71.194C296.711 70.51 297.035 69.592 297.035 68.44ZM308.772 56.02V76H304.155V56.02H308.772ZM326.32 68.224C326.32 68.656 326.293 69.106 326.239 69.574H315.79C315.862 70.51 316.159 71.23 316.681 71.734C317.221 72.22 317.878 72.463 318.652 72.463C319.804 72.463 320.605 71.977 321.055 71.005H325.969C325.717 71.995 325.258 72.886 324.592 73.678C323.944 74.47 323.125 75.091 322.135 75.541C321.145 75.991 320.038 76.216 318.814 76.216C317.338 76.216 316.024 75.901 314.872 75.271C313.72 74.641 312.82 73.741 312.172 72.571C311.524 71.401 311.2 70.033 311.2 68.467C311.2 66.901 311.515 65.533 312.145 64.363C312.793 63.193 313.693 62.293 314.845 61.663C315.997 61.033 317.32 60.718 318.814 60.718C320.272 60.718 321.568 61.024 322.702 61.636C323.836 62.248 324.718 63.121 325.348 64.255C325.996 65.389 326.32 66.712 326.32 68.224ZM321.595 67.009C321.595 66.217 321.325 65.587 320.785 65.119C320.245 64.651 319.57 64.417 318.76 64.417C317.986 64.417 317.329 64.642 316.789 65.092C316.267 65.542 315.943 66.181 315.817 67.009H321.595ZM333.724 71.734L330.727 79.483H327.784L329.35 71.734H333.724Z" fill="#4636FF"/>
<path d="M349.088 76.189C347.702 76.189 346.46 75.964 345.362 75.514C344.264 75.064 343.382 74.398 342.716 73.516C342.068 72.634 341.726 71.572 341.69 70.33H346.604C346.676 71.032 346.919 71.572 347.333 71.95C347.747 72.31 348.287 72.49 348.953 72.49C349.637 72.49 350.177 72.337 350.573 72.031C350.969 71.707 351.167 71.266 351.167 70.708C351.167 70.24 351.005 69.853 350.681 69.547C350.375 69.241 349.988 68.989 349.52 68.791C349.07 68.593 348.422 68.368 347.576 68.116C346.352 67.738 345.353 67.36 344.579 66.982C343.805 66.604 343.139 66.046 342.581 65.308C342.023 64.57 341.744 63.607 341.744 62.419C341.744 60.655 342.383 59.278 343.661 58.288C344.939 57.28 346.604 56.776 348.656 56.776C350.744 56.776 352.427 57.28 353.705 58.288C354.983 59.278 355.667 60.664 355.757 62.446H350.762C350.726 61.834 350.501 61.357 350.087 61.015C349.673 60.655 349.142 60.475 348.494 60.475C347.936 60.475 347.486 60.628 347.144 60.934C346.802 61.222 346.631 61.645 346.631 62.203C346.631 62.815 346.919 63.292 347.495 63.634C348.071 63.976 348.971 64.345 350.195 64.741C351.419 65.155 352.409 65.551 353.165 65.929C353.939 66.307 354.605 66.856 355.163 67.576C355.721 68.296 356 69.223 356 70.357C356 71.437 355.721 72.418 355.163 73.3C354.623 74.182 353.831 74.884 352.787 75.406C351.743 75.928 350.51 76.189 349.088 76.189ZM373.043 68.224C373.043 68.656 373.016 69.106 372.962 69.574H362.513C362.585 70.51 362.882 71.23 363.404 71.734C363.944 72.22 364.601 72.463 365.375 72.463C366.527 72.463 367.328 71.977 367.778 71.005H372.692C372.44 71.995 371.981 72.886 371.315 73.678C370.667 74.47 369.848 75.091 368.858 75.541C367.868 75.991 366.761 76.216 365.537 76.216C364.061 76.216 362.747 75.901 361.595 75.271C360.443 74.641 359.543 73.741 358.895 72.571C358.247 71.401 357.923 70.033 357.923 68.467C357.923 66.901 358.238 65.533 358.868 64.363C359.516 63.193 360.416 62.293 361.568 61.663C362.72 61.033 364.043 60.718 365.537 60.718C366.995 60.718 368.291 61.024 369.425 61.636C370.559 62.248 371.441 63.121 372.071 64.255C372.719 65.389 373.043 66.712 373.043 68.224ZM368.318 67.009C368.318 66.217 368.048 65.587 367.508 65.119C366.968 64.651 366.293 64.417 365.483 64.417C364.709 64.417 364.052 64.642 363.512 65.092C362.99 65.542 362.666 66.181 362.54 67.009H368.318ZM374.561 68.467C374.561 66.901 374.876 65.533 375.506 64.363C376.154 63.193 377.045 62.293 378.179 61.663C379.331 61.033 380.645 60.718 382.121 60.718C384.011 60.718 385.586 61.213 386.846 62.203C388.124 63.193 388.961 64.588 389.357 66.388H384.443C384.029 65.236 383.228 64.66 382.04 64.66C381.194 64.66 380.519 64.993 380.015 65.659C379.511 66.307 379.259 67.243 379.259 68.467C379.259 69.691 379.511 70.636 380.015 71.302C380.519 71.95 381.194 72.274 382.04 72.274C383.228 72.274 384.029 71.698 384.443 70.546H389.357C388.961 72.31 388.124 73.696 386.846 74.704C385.568 75.712 383.993 76.216 382.121 76.216C380.645 76.216 379.331 75.901 378.179 75.271C377.045 74.641 376.154 73.741 375.506 72.571C374.876 71.401 374.561 70.033 374.561 68.467ZM406.703 60.934V76H402.086V73.948C401.618 74.614 400.979 75.154 400.169 75.568C399.377 75.964 398.495 76.162 397.523 76.162C396.371 76.162 395.354 75.91 394.472 75.406C393.59 74.884 392.906 74.137 392.42 73.165C391.934 72.193 391.691 71.05 391.691 69.736V60.934H396.281V69.115C396.281 70.123 396.542 70.906 397.064 71.464C397.586 72.022 398.288 72.301 399.17 72.301C400.07 72.301 400.781 72.022 401.303 71.464C401.825 70.906 402.086 70.123 402.086 69.115V60.934H406.703ZM414.637 63.445C415.177 62.617 415.852 61.969 416.662 61.501C417.472 61.015 418.372 60.772 419.362 60.772V65.659H418.093C416.941 65.659 416.077 65.911 415.501 66.415C414.925 66.901 414.637 67.765 414.637 69.007V76H410.02V60.934H414.637V63.445ZM435.771 68.224C435.771 68.656 435.744 69.106 435.69 69.574H425.241C425.313 70.51 425.61 71.23 426.132 71.734C426.672 72.22 427.329 72.463 428.103 72.463C429.255 72.463 430.056 71.977 430.506 71.005H435.42C435.168 71.995 434.709 72.886 434.043 73.678C433.395 74.47 432.576 75.091 431.586 75.541C430.596 75.991 429.489 76.216 428.265 76.216C426.789 76.216 425.475 75.901 424.323 75.271C423.171 74.641 422.271 73.741 421.623 72.571C420.975 71.401 420.651 70.033 420.651 68.467C420.651 66.901 420.966 65.533 421.596 64.363C422.244 63.193 423.144 62.293 424.296 61.663C425.448 61.033 426.771 60.718 428.265 60.718C429.723 60.718 431.019 61.024 432.153 61.636C433.287 62.248 434.169 63.121 434.799 64.255C435.447 65.389 435.771 66.712 435.771 68.224ZM431.046 67.009C431.046 66.217 430.776 65.587 430.236 65.119C429.696 64.651 429.021 64.417 428.211 64.417C427.437 64.417 426.78 64.642 426.24 65.092C425.718 65.542 425.394 66.181 425.268 67.009H431.046Z" fill="#1875FF"/>
<path d="M248.928 88.046L242.367 100.736V107H237.75V100.736L231.189 88.046H236.427L240.099 95.984L243.744 88.046H248.928ZM264.99 99.224C264.99 99.656 264.963 100.106 264.909 100.574H254.46C254.532 101.51 254.829 102.23 255.351 102.734C255.891 103.22 256.548 103.463 257.322 103.463C258.474 103.463 259.275 102.977 259.725 102.005H264.639C264.387 102.995 263.928 103.886 263.262 104.678C262.614 105.47 261.795 106.091 260.805 106.541C259.815 106.991 258.708 107.216 257.484 107.216C256.008 107.216 254.694 106.901 253.542 106.271C252.39 105.641 251.49 104.741 250.842 103.571C250.194 102.401 249.87 101.033 249.87 99.467C249.87 97.901 250.185 96.533 250.815 95.363C251.463 94.193 252.363 93.293 253.515 92.663C254.667 92.033 255.99 91.718 257.484 91.718C258.942 91.718 260.238 92.024 261.372 92.636C262.506 93.248 263.388 94.121 264.018 95.255C264.666 96.389 264.99 97.712 264.99 99.224ZM260.265 98.009C260.265 97.217 259.995 96.587 259.455 96.119C258.915 95.651 258.24 95.417 257.43 95.417C256.656 95.417 255.999 95.642 255.459 96.092C254.937 96.542 254.613 97.181 254.487 98.009H260.265ZM275.823 103.085V107H273.474C271.8 107 270.495 106.595 269.559 105.785C268.623 104.957 268.155 103.616 268.155 101.762V95.768H266.319V91.934H268.155V88.262H272.772V91.934H275.796V95.768H272.772V101.816C272.772 102.266 272.88 102.59 273.096 102.788C273.312 102.986 273.672 103.085 274.176 103.085H275.823ZM246.309 119.046V122.745H241.287V138H236.67V122.745H231.648V119.046H246.309ZM262.828 130.224C262.828 130.656 262.801 131.106 262.747 131.574H252.298C252.37 132.51 252.667 133.23 253.189 133.734C253.729 134.22 254.386 134.463 255.16 134.463C256.312 134.463 257.113 133.977 257.563 133.005H262.477C262.225 133.995 261.766 134.886 261.1 135.678C260.452 136.47 259.633 137.091 258.643 137.541C257.653 137.991 256.546 138.216 255.322 138.216C253.846 138.216 252.532 137.901 251.38 137.271C250.228 136.641 249.328 135.741 248.68 134.571C248.032 133.401 247.708 132.033 247.708 130.467C247.708 128.901 248.023 127.533 248.653 126.363C249.301 125.193 250.201 124.293 251.353 123.663C252.505 123.033 253.828 122.718 255.322 122.718C256.78 122.718 258.076 123.024 259.21 123.636C260.344 124.248 261.226 125.121 261.856 126.255C262.504 127.389 262.828 128.712 262.828 130.224ZM258.103 129.009C258.103 128.217 257.833 127.587 257.293 127.119C256.753 126.651 256.078 126.417 255.268 126.417C254.494 126.417 253.837 126.642 253.297 127.092C252.775 127.542 252.451 128.181 252.325 129.009H258.103ZM284.488 122.772C286.36 122.772 287.845 123.339 288.943 124.473C290.059 125.607 290.617 127.182 290.617 129.198V138H286.027V129.819C286.027 128.847 285.766 128.1 285.244 127.578C284.74 127.038 284.038 126.768 283.138 126.768C282.238 126.768 281.527 127.038 281.005 127.578C280.501 128.1 280.249 128.847 280.249 129.819V138H275.659V129.819C275.659 128.847 275.398 128.1 274.876 127.578C274.372 127.038 273.67 126.768 272.77 126.768C271.87 126.768 271.159 127.038 270.637 127.578C270.133 128.1 269.881 128.847 269.881 129.819V138H265.264V122.934H269.881V124.824C270.349 124.194 270.961 123.699 271.717 123.339C272.473 122.961 273.328 122.772 274.282 122.772C275.416 122.772 276.424 123.015 277.306 123.501C278.206 123.987 278.908 124.68 279.412 125.58C279.934 124.752 280.645 124.077 281.545 123.555C282.445 123.033 283.426 122.772 284.488 122.772ZM298.463 125.067C298.913 124.365 299.534 123.798 300.326 123.366C301.118 122.934 302.045 122.718 303.107 122.718C304.349 122.718 305.474 123.033 306.482 123.663C307.49 124.293 308.282 125.193 308.858 126.363C309.452 127.533 309.749 128.892 309.749 130.44C309.749 131.988 309.452 133.356 308.858 134.544C308.282 135.714 307.49 136.623 306.482 137.271C305.474 137.901 304.349 138.216 303.107 138.216C302.063 138.216 301.136 138 300.326 137.568C299.534 137.136 298.913 136.578 298.463 135.894V145.182H293.846V122.934H298.463V125.067ZM305.051 130.44C305.051 129.288 304.727 128.388 304.079 127.74C303.449 127.074 302.666 126.741 301.73 126.741C300.812 126.741 300.029 127.074 299.381 127.74C298.751 128.406 298.436 129.315 298.436 130.467C298.436 131.619 298.751 132.528 299.381 133.194C300.029 133.86 300.812 134.193 301.73 134.193C302.648 134.193 303.431 133.86 304.079 133.194C304.727 132.51 305.051 131.592 305.051 130.44ZM316.788 118.02V138H312.171V118.02H316.788ZM319.216 130.44C319.216 128.892 319.504 127.533 320.08 126.363C320.674 125.193 321.475 124.293 322.483 123.663C323.491 123.033 324.616 122.718 325.858 122.718C326.92 122.718 327.847 122.934 328.639 123.366C329.449 123.798 330.07 124.365 330.502 125.067V122.934H335.119V138H330.502V135.867C330.052 136.569 329.422 137.136 328.612 137.568C327.82 138 326.893 138.216 325.831 138.216C324.607 138.216 323.491 137.901 322.483 137.271C321.475 136.623 320.674 135.714 320.08 134.544C319.504 133.356 319.216 131.988 319.216 130.44ZM330.502 130.467C330.502 129.315 330.178 128.406 329.53 127.74C328.9 127.074 328.126 126.741 327.208 126.741C326.29 126.741 325.507 127.074 324.859 127.74C324.229 128.388 323.914 129.288 323.914 130.44C323.914 131.592 324.229 132.51 324.859 133.194C325.507 133.86 326.29 134.193 327.208 134.193C328.126 134.193 328.9 133.86 329.53 133.194C330.178 132.528 330.502 131.619 330.502 130.467ZM346.856 134.085V138H344.507C342.833 138 341.528 137.595 340.592 136.785C339.656 135.957 339.188 134.616 339.188 132.762V126.768H337.352V122.934H339.188V119.262H343.805V122.934H346.829V126.768H343.805V132.816C343.805 133.266 343.913 133.59 344.129 133.788C344.345 133.986 344.705 134.085 345.209 134.085H346.856ZM363.63 130.224C363.63 130.656 363.603 131.106 363.549 131.574H353.1C353.172 132.51 353.469 133.23 353.991 133.734C354.531 134.22 355.188 134.463 355.962 134.463C357.114 134.463 357.915 133.977 358.365 133.005H363.279C363.027 133.995 362.568 134.886 361.902 135.678C361.254 136.47 360.435 137.091 359.445 137.541C358.455 137.991 357.348 138.216 356.124 138.216C354.648 138.216 353.334 137.901 352.182 137.271C351.03 136.641 350.13 135.741 349.482 134.571C348.834 133.401 348.51 132.033 348.51 130.467C348.51 128.901 348.825 127.533 349.455 126.363C350.103 125.193 351.003 124.293 352.155 123.663C353.307 123.033 354.63 122.718 356.124 122.718C357.582 122.718 358.878 123.024 360.012 123.636C361.146 124.248 362.028 125.121 362.658 126.255C363.306 127.389 363.63 128.712 363.63 130.224ZM358.905 129.009C358.905 128.217 358.635 127.587 358.095 127.119C357.555 126.651 356.88 126.417 356.07 126.417C355.296 126.417 354.639 126.642 354.099 127.092C353.577 127.542 353.253 128.181 353.127 129.009H358.905ZM254.139 150.046V169H249.522V157.633L245.283 169H241.557L237.291 157.606V169H232.674V150.046H238.128L243.447 163.168L248.712 150.046H254.139ZM256.541 161.44C256.541 159.892 256.829 158.533 257.405 157.363C257.999 156.193 258.8 155.293 259.808 154.663C260.816 154.033 261.941 153.718 263.183 153.718C264.245 153.718 265.172 153.934 265.964 154.366C266.774 154.798 267.395 155.365 267.827 156.067V153.934H272.444V169H267.827V166.867C267.377 167.569 266.747 168.136 265.937 168.568C265.145 169 264.218 169.216 263.156 169.216C261.932 169.216 260.816 168.901 259.808 168.271C258.8 167.623 257.999 166.714 257.405 165.544C256.829 164.356 256.541 162.988 256.541 161.44ZM267.827 161.467C267.827 160.315 267.503 159.406 266.855 158.74C266.225 158.074 265.451 157.741 264.533 157.741C263.615 157.741 262.832 158.074 262.184 158.74C261.554 159.388 261.239 160.288 261.239 161.44C261.239 162.592 261.554 163.51 262.184 164.194C262.832 164.86 263.615 165.193 264.533 165.193C265.451 165.193 266.225 164.86 266.855 164.194C267.503 163.528 267.827 162.619 267.827 161.467ZM284.964 153.772C286.728 153.772 288.132 154.348 289.176 155.5C290.238 156.634 290.769 158.2 290.769 160.198V169H286.179V160.819C286.179 159.811 285.918 159.028 285.396 158.47C284.874 157.912 284.172 157.633 283.29 157.633C282.408 157.633 281.706 157.912 281.184 158.47C280.662 159.028 280.401 159.811 280.401 160.819V169H275.784V153.934H280.401V155.932C280.869 155.266 281.499 154.744 282.291 154.366C283.083 153.97 283.974 153.772 284.964 153.772ZM293.06 161.44C293.06 159.892 293.348 158.533 293.924 157.363C294.518 156.193 295.319 155.293 296.327 154.663C297.335 154.033 298.46 153.718 299.702 153.718C300.764 153.718 301.691 153.934 302.483 154.366C303.293 154.798 303.914 155.365 304.346 156.067V153.934H308.963V169H304.346V166.867C303.896 167.569 303.266 168.136 302.456 168.568C301.664 169 300.737 169.216 299.675 169.216C298.451 169.216 297.335 168.901 296.327 168.271C295.319 167.623 294.518 166.714 293.924 165.544C293.348 164.356 293.06 162.988 293.06 161.44ZM304.346 161.467C304.346 160.315 304.022 159.406 303.374 158.74C302.744 158.074 301.97 157.741 301.052 157.741C300.134 157.741 299.351 158.074 298.703 158.74C298.073 159.388 297.758 160.288 297.758 161.44C297.758 162.592 298.073 163.51 298.703 164.194C299.351 164.86 300.134 165.193 301.052 165.193C301.97 165.193 302.744 164.86 303.374 164.194C304.022 163.528 304.346 162.619 304.346 161.467ZM318.027 153.718C319.089 153.718 320.016 153.934 320.808 154.366C321.618 154.798 322.239 155.365 322.671 156.067V153.934H327.288V168.973C327.288 170.359 327.009 171.61 326.451 172.726C325.911 173.86 325.074 174.76 323.94 175.426C322.824 176.092 321.429 176.425 319.755 176.425C317.523 176.425 315.714 175.894 314.328 174.832C312.942 173.788 312.15 172.366 311.952 170.566H316.515C316.659 171.142 317.001 171.592 317.541 171.916C318.081 172.258 318.747 172.429 319.539 172.429C320.493 172.429 321.249 172.15 321.807 171.592C322.383 171.052 322.671 170.179 322.671 168.973V166.84C322.221 167.542 321.6 168.118 320.808 168.568C320.016 169 319.089 169.216 318.027 169.216C316.785 169.216 315.66 168.901 314.652 168.271C313.644 167.623 312.843 166.714 312.249 165.544C311.673 164.356 311.385 162.988 311.385 161.44C311.385 159.892 311.673 158.533 312.249 157.363C312.843 156.193 313.644 155.293 314.652 154.663C315.66 154.033 316.785 153.718 318.027 153.718ZM322.671 161.467C322.671 160.315 322.347 159.406 321.699 158.74C321.069 158.074 320.295 157.741 319.377 157.741C318.459 157.741 317.676 158.074 317.028 158.74C316.398 159.388 316.083 160.288 316.083 161.44C316.083 162.592 316.398 163.51 317.028 164.194C317.676 164.86 318.459 165.193 319.377 165.193C320.295 165.193 321.069 164.86 321.699 164.194C322.347 163.528 322.671 162.619 322.671 161.467ZM344.83 161.224C344.83 161.656 344.803 162.106 344.749 162.574H334.3C334.372 163.51 334.669 164.23 335.191 164.734C335.731 165.22 336.388 165.463 337.162 165.463C338.314 165.463 339.115 164.977 339.565 164.005H344.479C344.227 164.995 343.768 165.886 343.102 166.678C342.454 167.47 341.635 168.091 340.645 168.541C339.655 168.991 338.548 169.216 337.324 169.216C335.848 169.216 334.534 168.901 333.382 168.271C332.23 167.641 331.33 166.741 330.682 165.571C330.034 164.401 329.71 163.033 329.71 161.467C329.71 159.901 330.025 158.533 330.655 157.363C331.303 156.193 332.203 155.293 333.355 154.663C334.507 154.033 335.83 153.718 337.324 153.718C338.782 153.718 340.078 154.024 341.212 154.636C342.346 155.248 343.228 156.121 343.858 157.255C344.506 158.389 344.83 159.712 344.83 161.224ZM340.105 160.009C340.105 159.217 339.835 158.587 339.295 158.119C338.755 157.651 338.08 157.417 337.27 157.417C336.496 157.417 335.839 157.642 335.299 158.092C334.777 158.542 334.453 159.181 334.327 160.009H340.105ZM351.883 156.445C352.423 155.617 353.098 154.969 353.908 154.501C354.718 154.015 355.618 153.772 356.608 153.772V158.659H355.339C354.187 158.659 353.323 158.911 352.747 159.415C352.171 159.901 351.883 160.765 351.883 162.007V169H347.266V153.934H351.883V156.445Z" fill="#383838"/>
<path d="M298.561 94.148C298.561 95.246 298.309 96.254 297.805 97.172C297.301 98.072 296.527 98.801 295.483 99.359C294.439 99.917 293.143 100.196 291.595 100.196H288.733V107H284.116V88.046H291.595C293.107 88.046 294.385 88.307 295.429 88.829C296.473 89.351 297.256 90.071 297.778 90.989C298.3 91.907 298.561 92.96 298.561 94.148ZM291.244 96.524C292.126 96.524 292.783 96.317 293.215 95.903C293.647 95.489 293.863 94.904 293.863 94.148C293.863 93.392 293.647 92.807 293.215 92.393C292.783 91.979 292.126 91.772 291.244 91.772H288.733V96.524H291.244ZM307.823 107.216C306.347 107.216 305.015 106.901 303.827 106.271C302.657 105.641 301.73 104.741 301.046 103.571C300.38 102.401 300.047 101.033 300.047 99.467C300.047 97.919 300.389 96.56 301.073 95.39C301.757 94.202 302.693 93.293 303.881 92.663C305.069 92.033 306.401 91.718 307.877 91.718C309.353 91.718 310.685 92.033 311.873 92.663C313.061 93.293 313.997 94.202 314.681 95.39C315.365 96.56 315.707 97.919 315.707 99.467C315.707 101.015 315.356 102.383 314.654 103.571C313.97 104.741 313.025 105.641 311.819 106.271C310.631 106.901 309.299 107.216 307.823 107.216ZM307.823 103.22C308.705 103.22 309.452 102.896 310.064 102.248C310.694 101.6 311.009 100.673 311.009 99.467C311.009 98.261 310.703 97.334 310.091 96.686C309.497 96.038 308.759 95.714 307.877 95.714C306.977 95.714 306.23 96.038 305.636 96.686C305.042 97.316 304.745 98.243 304.745 99.467C304.745 100.673 305.033 101.6 305.609 102.248C306.203 102.896 306.941 103.22 307.823 103.22ZM339.783 91.934L335.706 107H330.603L328.227 97.226L325.77 107H320.694L316.59 91.934H321.207L323.34 102.707L325.878 91.934H330.765L333.33 102.653L335.436 91.934H339.783ZM355.746 99.224C355.746 99.656 355.719 100.106 355.665 100.574H345.216C345.288 101.51 345.585 102.23 346.107 102.734C346.647 103.22 347.304 103.463 348.078 103.463C349.23 103.463 350.031 102.977 350.481 102.005H355.395C355.143 102.995 354.684 103.886 354.018 104.678C353.37 105.47 352.551 106.091 351.561 106.541C350.571 106.991 349.464 107.216 348.24 107.216C346.764 107.216 345.45 106.901 344.298 106.271C343.146 105.641 342.246 104.741 341.598 103.571C340.95 102.401 340.626 101.033 340.626 99.467C340.626 97.901 340.941 96.533 341.571 95.363C342.219 94.193 343.119 93.293 344.271 92.663C345.423 92.033 346.746 91.718 348.24 91.718C349.698 91.718 350.994 92.024 352.128 92.636C353.262 93.248 354.144 94.121 354.774 95.255C355.422 96.389 355.746 97.712 355.746 99.224ZM351.021 98.009C351.021 97.217 350.751 96.587 350.211 96.119C349.671 95.651 348.996 95.417 348.186 95.417C347.412 95.417 346.755 95.642 346.215 96.092C345.693 96.542 345.369 97.181 345.243 98.009H351.021ZM362.799 94.445C363.339 93.617 364.014 92.969 364.824 92.501C365.634 92.015 366.534 91.772 367.524 91.772V96.659H366.255C365.103 96.659 364.239 96.911 363.663 97.415C363.087 97.901 362.799 98.765 362.799 100.007V107H358.182V91.934H362.799V94.445ZM377.291 95.768H374.807V107H370.19V95.768H368.516V91.934H370.19V91.502C370.19 89.648 370.721 88.244 371.783 87.29C372.845 86.318 374.402 85.832 376.454 85.832C376.796 85.832 377.048 85.841 377.21 85.859V89.774C376.328 89.72 375.707 89.846 375.347 90.152C374.987 90.458 374.807 91.007 374.807 91.799V91.934H377.291V95.768ZM394.337 91.934V107H389.72V104.948C389.252 105.614 388.613 106.154 387.803 106.568C387.011 106.964 386.129 107.162 385.157 107.162C384.005 107.162 382.988 106.91 382.106 106.406C381.224 105.884 380.54 105.137 380.054 104.165C379.568 103.193 379.325 102.05 379.325 100.736V91.934H383.915V100.115C383.915 101.123 384.176 101.906 384.698 102.464C385.22 103.022 385.922 103.301 386.804 103.301C387.704 103.301 388.415 103.022 388.937 102.464C389.459 101.906 389.72 101.123 389.72 100.115V91.934H394.337ZM402.27 87.02V107H397.653V87.02H402.27Z" fill="#3662FF"/>
<path d="M220.748 119.411C220.748 175.533 176.147 179.783 138.443 203.233C86.7773 235.366 107.991 167.705 45.3221 129.998C33.0249 122.599 24.5568 109.138 28.5264 95.3466C42.3979 47.1528 76.0415 -13.3813 123.27 2.62161C172.928 12.7373 213.391 58.3949 220.748 119.411Z" fill="#36E7FF"/>
<path d="M197.758 126.768C197.758 182.889 153.157 187.14 115.453 210.59C63.7871 242.723 85.001 175.062 22.3319 137.355C10.0347 129.956 1.56664 116.495 5.53622 102.703C19.4077 54.5096 53.0514 -6.02442 100.279 9.97848C149.938 20.0941 190.401 65.7518 197.758 126.768Z" fill="#4636FF"/>
<path d="M211.092 119.411C211.092 175.533 166.491 179.783 128.787 203.233C77.1214 235.366 98.3353 167.705 35.6662 129.998C23.369 122.599 14.9009 109.138 18.8705 95.3466C32.742 47.1528 66.3857 -13.3813 113.614 2.62161C163.272 12.7373 203.735 58.3949 211.092 119.411Z" fill="#1875FF"/>
<path d="M41.2469 87.9877C42.4112 68.9133 50.541 53.7753 69.4858 54.9316C88.4307 56.088 111.944 68.9134 110.779 87.9878C109.615 107.062 92.5689 101.149 73.624 99.9923C54.6792 98.836 40.0827 107.062 41.2469 87.9877Z" fill="white"/>
<path d="M126.77 87.9877C127.934 68.9133 136.064 53.7753 155.009 54.9316C173.954 56.088 197.467 68.9134 196.303 87.9878C195.138 107.062 178.092 101.149 159.147 99.9923C140.202 98.836 125.606 107.062 126.77 87.9877Z" fill="white"/>
</svg>
